<svg width="243" height="41" viewBox="0 0 243 41" fill="none" xmlns="http://www.w3.org/2000/svg">
<rect width="130" height="41" fill="#164DB8"/>
<path d="M4.60001 12.68V7H18.52L25.92 25.76L33.04 7H42.8L49.92 26.04L57.32 7H67.32L56.44 35H43.76L37.92 19.2L32.08 35H19.4L10.56 12.68H4.60001Z" fill="white"/>
<path d="M66.5234 19V13.8H81.5234V35H71.5234V19H66.5234ZM71.5234 11V5.4H81.5234V11H71.5234Z" fill="white"/>
<path d="M88.7172 35V13.8H95.8772L97.9172 15.8L99.9172 13.8H114.717L124.517 18.6V35H114.517V20.2L112.117 19H98.7172V35H88.7172Z" fill="white"/>
<path d="M130 19V13.8H135V7H145V13.8H154.8V19H145V28.6L147.4 29.8H162.8V35H144.8L135 30.2V19H130Z" fill="#164DB8"/>
<path d="M161.953 19V13.8H202.353V24.4L176.953 28V29.8H192.353V28L202.353 27V35H166.953V19H161.953ZM176.953 22.84L192.353 20.8V19H176.953V22.84Z" fill="#164DB8"/>
<path d="M205.938 19V13.8H218.098L220.137 15.8L222.138 13.8H242.338V22.6L232.338 21.6V19H220.938V35H210.938V19H205.938Z" fill="#164DB8"/>
</svg>
