<svg width="1994" height="1428" viewBox="0 0 1994 1428" fill="none" xmlns="http://www.w3.org/2000/svg">
<path d="M1244.09 1342.86C1224.45 1342.86 1205.17 1340.81 1186.41 1336.61C1201.6 1337.68 1216.6 1338.23 1231.31 1338.23C1271.96 1338.23 1310.65 1334.08 1346.68 1325.63C1311.99 1336.93 1277.53 1342.86 1244.09 1342.86ZM1530.49 1216.38C1601.96 1129.18 1618.13 1005.89 1585.51 869.924L1613.94 869.967C1623.2 869.967 1630.65 868.276 1630.63 866.216C1630.58 864.129 1623.04 862.442 1613.81 862.412L1583.65 862.378C1542.48 699.202 1431.71 518.547 1262.42 360.362C1352.33 283.562 1451.23 239.43 1542.42 239.43C1573.69 239.43 1604.06 244.618 1632.85 255.456C1812.71 323.16 1867.55 587.421 1766.89 862.645C1766.61 862.64 1766.33 862.64 1766.05 862.64L1689.91 862.52C1680.68 862.52 1673.21 864.181 1673.26 866.254C1673.28 868.345 1680.81 870.045 1690.06 870.062L1764.1 870.152C1757.54 887.624 1750.35 905.125 1742.52 922.622C1688.92 1042.47 1613.77 1143.46 1530.49 1216.38ZM1505.6 381.873C1496.7 381.873 1489.49 383.925 1489.49 386.438C1489.49 388.985 1496.7 391.007 1505.6 391.007H1654.39H1677.89H1734.52C1743.43 391.007 1750.66 388.985 1750.66 386.438C1750.66 383.925 1743.43 381.873 1734.52 381.873H1677.89H1654.39H1505.6Z" fill="#DCF3EB"/>
<path d="M1186.41 1336.61C1040.57 1326.26 874.01 1266.58 714.844 1164.14H715.825C724.73 1164.14 731.919 1162.09 731.919 1159.56C731.919 1157.04 724.73 1155 715.825 1155H700.827C640.862 1115.35 582.089 1069.63 526.022 1018.19C497.903 992.392 471.349 965.972 446.418 939.1C452.574 938.455 456.967 936.773 456.967 934.789C456.967 932.272 449.756 930.22 440.851 930.22H438.252C247.614 721.067 154.506 486.052 181.857 307.56L186.823 310.026C187.727 310.469 188.685 310.692 189.618 310.692C191.937 310.692 194.177 309.402 195.273 307.178C196.819 304.08 195.55 300.29 192.424 298.736L184.075 294.593C186.411 282.255 189.347 270.187 192.885 258.455C195.596 256.82 196.681 253.417 195.387 250.513C211.519 201.493 238.515 158.247 276.965 122.972C280.812 119.445 284.758 116.007 288.776 112.69L361.377 112.768C361.417 112.768 361.457 112.768 361.499 112.768C370.685 112.768 378.102 111.098 378.029 109.02C377.997 106.96 370.48 105.256 361.225 105.239L298.286 105.148C363.823 55.268 450.019 31.412 547.491 31.412C760.899 31.412 1028.5 145.693 1252.79 351.443C1256.01 354.399 1259.24 357.389 1262.42 360.362C1176.6 433.668 1098.96 536.741 1043.98 659.661C911.65 955.505 960.752 1254.21 1153.64 1326.83C1164.36 1330.86 1175.29 1334.11 1186.41 1336.61ZM410.691 519.541C401.453 519.541 393.988 521.231 394.025 523.297C394.059 525.379 401.588 527.065 410.822 527.083L449.911 527.143C449.937 527.143 449.959 527.143 449.98 527.143C459.178 527.143 466.591 525.461 466.565 523.391C466.518 521.313 459.006 519.614 449.769 519.601L410.691 519.541ZM258.448 519.351C249.202 519.351 241.752 521.025 241.76 523.09C241.816 525.19 249.345 526.88 258.605 526.88L334.706 526.988C334.768 526.988 334.831 526.988 334.892 526.988C344.057 526.988 351.426 525.314 351.377 523.249C351.347 521.154 343.823 519.459 334.583 519.459L258.448 519.351ZM232.575 221.369C229.637 221.369 227.015 223.451 226.426 226.446L206.314 328.538C205.65 331.954 207.86 335.263 211.28 335.942C211.689 336.02 212.104 336.054 212.507 336.054C215.453 336.054 218.083 333.972 218.675 330.973L238.796 228.885C239.468 225.469 237.245 222.152 233.828 221.498C233.408 221.412 232.988 221.369 232.575 221.369ZM255.477 246.77C253.163 246.77 250.935 248.06 249.832 250.272C248.295 253.382 249.569 257.155 252.677 258.708L292.992 278.74L252.677 298.736C249.569 300.29 248.295 304.08 249.832 307.178C250.933 309.402 253.16 310.692 255.484 310.692C256.429 310.692 257.37 310.469 258.277 310.026L309.958 284.38C312.106 283.304 313.467 281.119 313.467 278.74C313.467 276.326 312.106 274.149 309.958 273.082L258.277 247.437C257.376 246.98 256.42 246.77 255.477 246.77ZM639.726 140.319C638.832 140.319 638.135 142.849 638.135 145.998V159.236C638.135 162.377 638.832 164.889 639.726 164.889C640.626 164.889 641.344 162.377 641.344 159.236V145.998C641.344 142.849 640.626 140.319 639.726 140.319ZM632.155 133.186C631.479 133.186 630.15 134.025 628.855 135.324L622.277 141.915C620.702 143.451 619.803 145.082 620.263 145.521C620.336 145.598 620.448 145.632 620.586 145.632C621.248 145.632 622.573 144.785 623.873 143.503L630.451 136.92C632.021 135.354 632.92 133.737 632.486 133.298C632.408 133.22 632.292 133.186 632.155 133.186ZM647.014 132.876C646.873 132.876 646.761 132.915 646.683 132.992C646.227 133.431 647.131 135.066 648.697 136.611L655.292 143.202C656.587 144.484 657.916 145.331 658.592 145.331C658.73 145.331 658.841 145.297 658.919 145.219C659.358 144.772 658.446 143.159 656.888 141.593L650.301 135.01C649.011 133.715 647.681 132.876 647.014 132.876ZM606.251 124.749C603.11 124.749 600.567 125.464 600.567 126.35C600.567 127.236 603.11 127.959 606.251 127.959H619.484C622.629 127.959 625.163 127.236 625.163 126.35C625.163 125.464 622.629 124.749 619.484 124.749H606.251ZM659.371 124.138C656.247 124.138 653.709 124.844 653.709 125.743C653.709 126.629 656.247 127.352 659.371 127.352H672.609C675.749 127.352 678.283 126.629 678.283 125.743C678.283 124.844 675.749 124.138 672.609 124.138H659.371ZM620.267 106.753C620.134 106.753 620.031 106.787 619.962 106.856C619.502 107.304 620.401 108.934 621.967 110.5L628.558 117.078C629.853 118.369 631.186 119.208 631.866 119.208C632.004 119.208 632.111 119.174 632.189 119.1C632.615 118.662 631.716 117.031 630.15 115.465L623.567 108.883C622.259 107.601 620.926 106.753 620.267 106.753ZM658.278 106.448C657.615 106.448 656.286 107.299 654.982 108.573L648.4 115.16C646.838 116.726 645.935 118.352 646.378 118.799C646.455 118.877 646.563 118.911 646.7 118.911C647.372 118.911 648.701 118.072 649.992 116.773L656.583 110.191C658.144 108.633 659.052 106.994 658.596 106.555C658.523 106.482 658.415 106.448 658.278 106.448ZM437.362 105.329C428.095 105.329 420.653 106.994 420.665 109.072C420.721 111.163 428.255 112.862 437.491 112.875L476.564 112.905C476.646 112.905 476.723 112.905 476.805 112.905C485.947 112.905 493.256 111.227 493.231 109.167C493.183 107.097 485.654 105.406 476.417 105.376L437.362 105.329ZM639.133 87.1864C638.234 87.1864 637.515 89.7204 637.515 92.8481V106.103C637.515 109.227 638.234 111.774 639.133 111.774C640.015 111.774 640.738 109.227 640.738 106.103V92.8481C640.738 89.7204 640.015 87.1864 639.133 87.1864ZM1346.68 1325.63C1408.83 1305.37 1471.7 1267.87 1530.49 1216.38C1521.77 1227.03 1512.22 1237.13 1501.83 1246.66C1459.56 1285.45 1406.78 1311.52 1346.68 1325.63Z" fill="#CAEDE2"/>
<path d="M1231.31 1338.23C1216.6 1338.23 1201.6 1337.68 1186.41 1336.61C1175.29 1334.11 1164.36 1330.86 1153.64 1326.83C960.752 1254.21 911.65 955.504 1043.98 659.66C1098.96 536.741 1176.6 433.668 1262.42 360.362C1431.71 518.547 1542.48 699.202 1583.65 862.378L1537.7 862.326C1537.62 862.326 1537.54 862.326 1537.46 862.326C1528.29 862.326 1520.96 864.021 1521 866.048C1521.06 868.139 1528.57 869.838 1537.8 869.855L1585.51 869.924C1618.13 1005.89 1601.96 1129.18 1530.49 1216.38C1471.7 1267.87 1408.84 1305.37 1346.68 1325.63C1310.64 1334.08 1271.95 1338.23 1231.31 1338.23Z" fill="#B2E4D6"/>
<path d="M1573.62 18.4795C1573.51 18.4795 1573.41 18.4579 1573.3 18.4106C1572.88 18.217 1572.7 17.7437 1572.88 17.3436L1573.63 15.6314C1573.76 15.3216 1574.05 15.1539 1574.36 15.1539C1574.46 15.1539 1574.57 15.171 1574.67 15.214C1575.08 15.3947 1575.26 15.8637 1575.1 16.2939L1574.34 17.9847C1574.21 18.2901 1573.92 18.4795 1573.62 18.4795Z" fill="#CED4E8"/>
<path d="M1567.78 31.7988C1567.67 31.7988 1567.56 31.7774 1567.45 31.73C1567.04 31.5665 1566.86 31.0975 1567.04 30.6845L1568.49 27.333C1568.63 27.0491 1568.92 26.8728 1569.23 26.8728C1569.33 26.8728 1569.45 26.8986 1569.55 26.9459C1569.96 27.1266 1570.14 27.5826 1569.97 27.9999L1568.51 31.3169C1568.38 31.6224 1568.08 31.7988 1567.78 31.7988ZM1570.7 25.1347C1570.59 25.1347 1570.48 25.1131 1570.37 25.0657C1569.97 24.898 1569.79 24.4118 1569.96 24.0117L1571.42 20.6904C1571.55 20.3892 1571.84 20.2043 1572.15 20.2043C1572.26 20.2043 1572.37 20.2258 1572.48 20.2774C1572.88 20.428 1573.07 20.9098 1572.88 21.3271L1571.43 24.6484C1571.3 24.9539 1571 25.1347 1570.7 25.1347Z" fill="#CED4E8"/>
<path d="M1601 44.3013C1600.69 44.3013 1600.39 44.1076 1600.26 43.7978C1600.12 43.3805 1600.3 42.903 1600.72 42.774L1602.46 42.0812C1602.56 42.0382 1602.66 42.0211 1602.76 42.0211C1603.08 42.0211 1603.37 42.2146 1603.49 42.5201C1603.66 42.9503 1603.46 43.4106 1603.03 43.5698L1601.31 44.2367C1601.21 44.2797 1601.1 44.3013 1601 44.3013Z" fill="#CED4E8"/>
<path d="M1587.45 49.6064C1587.13 49.6064 1586.83 49.4129 1586.71 49.1074C1586.54 48.6901 1586.74 48.2254 1587.16 48.0834L1590.54 46.7283C1590.64 46.6982 1590.73 46.681 1590.82 46.681C1591.15 46.681 1591.46 46.8702 1591.59 47.1671C1591.75 47.6145 1591.55 48.0835 1591.13 48.2254L1587.75 49.5506C1587.65 49.585 1587.55 49.6064 1587.45 49.6064ZM1594.21 46.952C1593.9 46.952 1593.61 46.7627 1593.49 46.453C1593.33 46.0357 1593.53 45.571 1593.94 45.429L1597.32 44.0824C1597.42 44.048 1597.51 44.0308 1597.61 44.0308C1597.94 44.0308 1598.25 44.2243 1598.37 44.5427C1598.54 44.96 1598.32 45.429 1597.91 45.571L1594.52 46.8918C1594.42 46.9348 1594.31 46.952 1594.21 46.952Z" fill="#CED4E8"/>
<path d="M1603.82 82.6987C1603.71 82.6987 1603.61 82.6815 1603.5 82.6384L1601.8 81.8769C1601.39 81.6919 1601.21 81.223 1601.39 80.8229C1601.51 80.526 1601.8 80.3454 1602.11 80.3454C1602.22 80.3454 1602.33 80.3712 1602.43 80.4228L1604.15 81.1628C1604.55 81.3349 1604.73 81.8124 1604.57 82.2211C1604.43 82.5223 1604.13 82.6987 1603.82 82.6987Z" fill="#CED4E8"/>
<path d="M1598.79 80.4873C1598.69 80.4873 1598.58 80.4658 1598.47 80.4228L1595.13 78.96C1594.72 78.7879 1594.54 78.3061 1594.72 77.906C1594.84 77.6048 1595.14 77.4328 1595.45 77.4328C1595.56 77.4328 1595.67 77.4499 1595.78 77.493L1599.1 78.96C1599.51 79.1407 1599.69 79.6097 1599.51 80.0098C1599.38 80.3153 1599.09 80.4873 1598.79 80.4873ZM1592.12 77.5747C1592.01 77.5747 1591.9 77.5489 1591.8 77.5059L1588.45 76.0517C1588.05 75.8581 1587.86 75.3891 1588.05 74.9847C1588.17 74.6879 1588.46 74.5158 1588.77 74.5158C1588.88 74.5158 1588.99 74.5373 1589.1 74.5846L1592.44 76.0259C1592.83 76.2152 1593.01 76.6885 1592.85 77.0929C1592.71 77.3897 1592.43 77.5747 1592.12 77.5747Z" fill="#CED4E8"/>
<path d="M1576.95 111.085C1576.64 111.085 1576.33 110.896 1576.22 110.577L1575.54 108.839C1575.38 108.422 1575.59 107.966 1575.99 107.815C1576.09 107.768 1576.19 107.746 1576.3 107.746C1576.61 107.746 1576.9 107.944 1577.03 108.254L1577.72 110.001C1577.87 110.418 1577.66 110.857 1577.25 111.025C1577.15 111.068 1577.05 111.085 1576.95 111.085Z" fill="#CED4E8"/>
<path d="M1574.96 105.961C1574.63 105.961 1574.33 105.759 1574.2 105.462L1572.88 102.059C1572.73 101.651 1572.93 101.173 1573.33 101.005C1573.42 100.975 1573.51 100.962 1573.6 100.962C1573.93 100.962 1574.24 101.147 1574.36 101.466L1575.69 104.869C1575.85 105.282 1575.67 105.768 1575.25 105.906C1575.15 105.944 1575.05 105.961 1574.96 105.961ZM1572.3 99.1811C1571.99 99.1811 1571.68 98.9789 1571.55 98.6562L1570.24 95.279C1570.07 94.866 1570.27 94.4013 1570.69 94.2464C1570.79 94.2077 1570.88 94.1905 1570.98 94.1905C1571.3 94.1905 1571.61 94.3927 1571.73 94.6982L1573.05 98.0927C1573.21 98.4885 1573.01 98.966 1572.58 99.1252C1572.49 99.1639 1572.4 99.1811 1572.3 99.1811Z" fill="#CED4E8"/>
<path d="M1537.88 112.161C1537.77 112.161 1537.67 112.144 1537.56 112.101C1537.16 111.924 1536.97 111.447 1537.16 111.055L1537.92 109.335C1538.04 109.042 1538.32 108.861 1538.63 108.861C1538.74 108.861 1538.85 108.887 1538.96 108.934C1539.36 109.089 1539.55 109.558 1539.37 110.001L1538.62 111.692C1538.5 111.985 1538.2 112.161 1537.88 112.161Z" fill="#CED4E8"/>
<path d="M1540.11 107.119C1540 107.119 1539.89 107.093 1539.78 107.037C1539.37 106.873 1539.19 106.404 1539.36 106L1540.82 102.674C1540.95 102.36 1541.25 102.184 1541.57 102.184C1541.68 102.184 1541.78 102.205 1541.88 102.24C1542.29 102.416 1542.47 102.894 1542.29 103.298L1540.84 106.65C1540.7 106.934 1540.41 107.119 1540.11 107.119ZM1543.01 100.459C1542.91 100.459 1542.8 100.437 1542.7 100.398C1542.29 100.209 1542.09 99.7231 1542.29 99.3358L1543.74 96.0016C1543.87 95.6875 1544.18 95.5112 1544.49 95.5112C1544.6 95.5112 1544.7 95.5284 1544.8 95.5671C1545.21 95.7521 1545.39 96.221 1545.21 96.6513L1543.74 99.9726C1543.62 100.278 1543.32 100.459 1543.01 100.459Z" fill="#CED4E8"/>
<path d="M1509.49 85.2974C1509.18 85.2974 1508.87 85.1124 1508.75 84.794C1508.59 84.381 1508.8 83.9121 1509.19 83.7443L1510.94 83.0688C1511.04 83.0301 1511.14 83.013 1511.23 83.013C1511.55 83.013 1511.86 83.2151 1511.99 83.5206C1512.14 83.9422 1511.93 84.4068 1511.54 84.5746L1509.79 85.2415C1509.69 85.2802 1509.59 85.2974 1509.49 85.2974Z" fill="#CED4E8"/>
<path d="M1514.64 83.2886C1514.31 83.2886 1514 83.1036 1513.88 82.7766C1513.72 82.3593 1513.92 81.9204 1514.34 81.7526L1517.72 80.4233C1517.82 80.3803 1517.92 80.363 1518.02 80.363C1518.34 80.363 1518.65 80.561 1518.77 80.8665C1518.93 81.2838 1518.73 81.7699 1518.31 81.9205L1514.91 83.2456C1514.82 83.2757 1514.73 83.2886 1514.64 83.2886ZM1521.41 80.6384C1521.08 80.6384 1520.78 80.4577 1520.65 80.135C1520.5 79.7048 1520.71 79.266 1521.11 79.0982L1524.5 77.7646C1524.6 77.7301 1524.7 77.7129 1524.79 77.7129C1525.12 77.7129 1525.41 77.9021 1525.54 78.2119C1525.71 78.6335 1525.49 79.0982 1525.09 79.266L1521.7 80.5911C1521.61 80.6212 1521.51 80.6384 1521.41 80.6384Z" fill="#CED4E8"/>
<path d="M1510.12 46.9814C1510.01 46.9814 1509.91 46.9599 1509.81 46.9212L1508.09 46.1596C1507.69 45.979 1507.52 45.51 1507.69 45.0927C1507.82 44.8088 1508.11 44.6324 1508.42 44.6324C1508.53 44.6324 1508.64 44.6539 1508.75 44.7055L1510.46 45.4412C1510.86 45.6176 1511.05 46.0865 1510.86 46.5038C1510.74 46.7964 1510.43 46.9814 1510.12 46.9814Z" fill="#CED4E8"/>
<path d="M1523.46 52.8115C1523.35 52.8115 1523.25 52.7899 1523.14 52.7426L1519.82 51.2799C1519.42 51.0992 1519.22 50.6303 1519.4 50.2259C1519.54 49.9333 1519.82 49.7483 1520.13 49.7483C1520.23 49.7483 1520.35 49.7741 1520.45 49.8257L1523.78 51.2799C1524.19 51.4563 1524.39 51.9295 1524.21 52.3253C1524.07 52.6265 1523.77 52.8115 1523.46 52.8115ZM1516.81 49.8946C1516.7 49.8946 1516.59 49.873 1516.48 49.8257L1513.14 48.363C1512.74 48.1952 1512.56 47.7263 1512.73 47.3089C1512.87 47.0164 1513.17 46.8356 1513.48 46.8356C1513.58 46.8356 1513.69 46.8529 1513.78 46.8916L1517.11 48.363C1517.54 48.5351 1517.72 48.9997 1517.54 49.417C1517.42 49.7181 1517.11 49.8946 1516.81 49.8946Z" fill="#CED4E8"/>
<path d="M1535.96 19.5679C1535.64 19.5679 1535.33 19.3785 1535.22 19.0601L1534.55 17.3349C1534.38 16.9004 1534.59 16.4616 1534.99 16.2938C1535.09 16.2551 1535.19 16.2379 1535.29 16.2379C1535.61 16.2379 1535.91 16.4315 1536.04 16.737L1536.71 18.4837C1536.87 18.8967 1536.67 19.3656 1536.27 19.5076C1536.17 19.5463 1536.06 19.5679 1535.96 19.5679Z" fill="#CED4E8"/>
<path d="M1541.27 33.1323C1540.95 33.1323 1540.65 32.9388 1540.54 32.6419L1539.21 29.2432C1539.04 28.8259 1539.24 28.3568 1539.66 28.202C1539.76 28.1589 1539.86 28.1418 1539.96 28.1418C1540.27 28.1418 1540.57 28.3354 1540.68 28.6494L1542.01 32.0353C1542.18 32.4527 1541.98 32.9216 1541.55 33.0721C1541.46 33.1152 1541.36 33.1323 1541.27 33.1323ZM1538.63 26.3521C1538.31 26.3521 1538.01 26.1713 1537.88 25.84L1536.56 22.4542C1536.38 22.0498 1536.58 21.5765 1537.01 21.413C1537.1 21.3786 1537.19 21.3614 1537.29 21.3614C1537.61 21.3614 1537.92 21.5593 1538.05 21.8691L1539.36 25.255C1539.52 25.6723 1539.33 26.1412 1538.9 26.309C1538.81 26.3391 1538.72 26.3521 1538.63 26.3521Z" fill="#CED4E8"/>
<path d="M1556.12 20.4841L1555.64 20.0023V18.8579L1556.12 18.3718L1556.61 18.8579V20.0023L1556.12 20.4841Z" fill="#CED4E8"/>
<path d="M1556.12 29.5056L1555.64 29.0238V22.0756L1556.12 21.5895L1556.61 22.0756V23.7922V24.4935V29.0238L1556.12 29.5056Z" fill="#CED4E8"/>
<path d="M1587.34 33.1411H1586.65V32.4227L1587.47 31.6182H1588.14V32.328L1587.34 33.1411Z" fill="#CED4E8"/>
<path d="M1580.96 39.5176H1580.27V38.8164L1583.46 35.6369L1583.97 35.1207L1585.18 33.8988H1585.86V34.5958L1584.65 35.8134L1584.15 36.321L1580.96 39.5176Z" fill="#CED4E8"/>
<path d="M1600.93 64.1523H1599.79L1599.3 63.6576L1599.79 63.1757H1600.93L1601.42 63.6576L1600.93 64.1523Z" fill="#CED4E8"/>
<path d="M1597.7 64.1523H1590.77L1590.29 63.6576L1590.77 63.1757H1595.28H1596H1597.7L1598.19 63.6576L1597.7 64.1523Z" fill="#CED4E8"/>
<path d="M1588.14 95.6919H1587.47L1586.65 94.883V94.2033H1587.34L1588.14 95.0078V95.6919Z" fill="#CED4E8"/>
<path d="M1585.86 93.3989H1585.18L1583.97 92.1986L1583.46 91.6866L1580.27 88.5073V87.8103H1580.96L1584.15 91.0025L1584.65 91.5017L1585.86 92.7106V93.3989Z" fill="#CED4E8"/>
<path d="M1556.12 108.952L1555.64 108.453V107.347L1556.12 106.848L1556.61 107.347V108.453L1556.12 108.952Z" fill="#CED4E8"/>
<path d="M1556.12 105.738L1555.64 105.256V98.2991L1556.12 97.7999L1556.61 98.2991V102.803V103.526V105.256L1556.12 105.738Z" fill="#CED4E8"/>
<path d="M1524.79 95.6919H1524.1V95.0078L1524.91 94.2033H1525.59V94.883L1524.79 95.6919Z" fill="#CED4E8"/>
<path d="M1527.06 93.3989H1526.37V92.7106L1527.6 91.5017L1528.11 91.0025L1531.28 87.8103H1531.98V88.5073L1528.79 91.6866L1528.28 92.1986L1527.06 93.3989Z" fill="#CED4E8"/>
<path d="M1512.46 64.1523H1511.31L1510.83 63.6576L1511.31 63.1757H1512.46L1512.95 63.6576L1512.46 64.1523Z" fill="#CED4E8"/>
<path d="M1521.48 64.1523H1514.55L1514.06 63.6576L1514.55 63.1757H1516.26H1516.98H1521.48L1521.97 63.6576L1521.48 64.1523Z" fill="#CED4E8"/>
<path d="M1525.59 33.1411H1524.91L1524.1 32.328V31.6182H1524.79L1525.59 32.4227V33.1411Z" fill="#CED4E8"/>
<path d="M1531.98 39.5176H1531.28L1528.11 36.321L1527.6 35.8134L1526.37 34.5958V33.8988H1527.06L1528.28 35.1207L1528.79 35.6369L1531.98 38.8164V39.5176Z" fill="#CED4E8"/>
<path d="M1525.12 1297.5C1525.01 1297.5 1524.9 1297.48 1524.79 1297.43C1524.39 1297.28 1524.19 1296.78 1524.37 1296.38L1525.12 1294.68C1525.25 1294.37 1525.54 1294.19 1525.85 1294.19C1525.96 1294.19 1526.07 1294.22 1526.17 1294.27C1526.59 1294.43 1526.77 1294.9 1526.59 1295.32L1525.84 1297.03C1525.71 1297.33 1525.42 1297.5 1525.12 1297.5Z" fill="#CED4E8"/>
<path d="M1519.27 1310.85C1519.17 1310.85 1519.06 1310.83 1518.96 1310.78C1518.55 1310.59 1518.36 1310.13 1518.55 1309.72L1519.99 1306.4C1520.13 1306.1 1520.41 1305.91 1520.72 1305.91C1520.83 1305.91 1520.94 1305.94 1521.04 1305.98C1521.45 1306.17 1521.64 1306.64 1521.46 1307.04L1520 1310.37C1519.86 1310.67 1519.58 1310.85 1519.27 1310.85ZM1522.19 1304.17C1522.08 1304.17 1521.98 1304.15 1521.87 1304.11C1521.46 1303.92 1521.28 1303.47 1521.45 1303.05L1522.91 1299.71C1523.06 1299.42 1523.36 1299.24 1523.67 1299.24C1523.77 1299.24 1523.87 1299.26 1523.96 1299.3C1524.37 1299.5 1524.55 1299.95 1524.39 1300.37L1522.92 1303.69C1522.79 1304 1522.5 1304.17 1522.19 1304.17Z" fill="#CED4E8"/>
<path d="M1552.52 1323.35C1552.19 1323.35 1551.88 1323.16 1551.76 1322.84C1551.61 1322.44 1551.8 1321.94 1552.21 1321.81L1553.96 1321.12C1554.06 1321.08 1554.16 1321.07 1554.26 1321.07C1554.57 1321.07 1554.87 1321.25 1554.98 1321.57C1555.15 1321.99 1554.95 1322.46 1554.53 1322.61L1552.8 1323.31C1552.71 1323.34 1552.61 1323.35 1552.52 1323.35Z" fill="#CED4E8"/>
<path d="M1538.94 1328.65C1538.62 1328.65 1538.33 1328.46 1538.2 1328.15C1538.05 1327.73 1538.25 1327.26 1538.65 1327.11L1542.05 1325.76C1542.14 1325.73 1542.23 1325.72 1542.32 1325.72C1542.64 1325.72 1542.96 1325.91 1543.09 1326.23C1543.24 1326.63 1543.04 1327.11 1542.63 1327.26L1539.24 1328.59C1539.14 1328.63 1539.04 1328.65 1538.94 1328.65ZM1545.73 1325.99C1545.4 1325.99 1545.11 1325.8 1544.99 1325.49C1544.82 1325.08 1545.02 1324.61 1545.45 1324.46L1548.82 1323.11C1548.91 1323.08 1549 1323.06 1549.1 1323.06C1549.42 1323.06 1549.73 1323.26 1549.86 1323.57C1550.03 1323.98 1549.83 1324.46 1549.42 1324.61L1546.03 1325.93C1545.93 1325.98 1545.83 1325.99 1545.73 1325.99Z" fill="#CED4E8"/>
<path d="M1555.32 1361.74C1555.21 1361.74 1555.1 1361.72 1555 1361.68L1553.29 1360.92C1552.88 1360.75 1552.7 1360.28 1552.88 1359.86C1553.01 1359.55 1553.3 1359.38 1553.6 1359.38C1553.71 1359.38 1553.82 1359.4 1553.92 1359.45L1555.64 1360.2C1556.04 1360.38 1556.22 1360.84 1556.05 1361.26C1555.92 1361.57 1555.62 1361.74 1555.32 1361.74Z" fill="#CED4E8"/>
<path d="M1550.3 1359.52C1550.19 1359.52 1550.07 1359.5 1549.97 1359.45L1546.62 1358.01C1546.21 1357.83 1546.03 1357.35 1546.21 1356.96C1546.34 1356.65 1546.64 1356.47 1546.96 1356.47C1547.06 1356.47 1547.17 1356.49 1547.27 1356.53L1550.6 1358C1551.01 1358.17 1551.19 1358.65 1551.02 1359.04C1550.89 1359.34 1550.6 1359.52 1550.3 1359.52ZM1543.6 1356.61C1543.5 1356.61 1543.39 1356.59 1543.28 1356.54L1539.95 1355.08C1539.55 1354.9 1539.36 1354.43 1539.55 1354.03C1539.67 1353.73 1539.96 1353.55 1540.27 1353.55C1540.38 1353.55 1540.5 1353.57 1540.61 1353.63L1543.93 1355.07C1544.33 1355.25 1544.52 1355.73 1544.35 1356.13C1544.22 1356.43 1543.92 1356.61 1543.6 1356.61Z" fill="#CED4E8"/>
<path d="M1528.45 1390.13C1528.13 1390.13 1527.83 1389.93 1527.72 1389.61L1527.03 1387.88C1526.88 1387.46 1527.07 1387 1527.48 1386.84C1527.58 1386.8 1527.68 1386.78 1527.77 1386.78C1528.09 1386.78 1528.39 1386.99 1528.52 1387.29L1529.21 1389.05C1529.36 1389.45 1529.16 1389.91 1528.76 1390.06C1528.66 1390.1 1528.55 1390.13 1528.45 1390.13Z" fill="#CED4E8"/>
<path d="M1526.46 1385C1526.14 1385 1525.83 1384.8 1525.71 1384.5L1524.39 1381.1C1524.22 1380.7 1524.41 1380.23 1524.81 1380.07C1524.92 1380.03 1525.02 1380.01 1525.12 1380.01C1525.45 1380.01 1525.74 1380.2 1525.86 1380.53L1527.2 1383.92C1527.37 1384.32 1527.16 1384.78 1526.74 1384.95C1526.65 1384.98 1526.56 1385 1526.46 1385ZM1523.78 1378.21C1523.47 1378.21 1523.17 1378.02 1523.05 1377.71L1521.73 1374.32C1521.57 1373.91 1521.77 1373.45 1522.19 1373.29C1522.28 1373.25 1522.38 1373.24 1522.47 1373.24C1522.79 1373.24 1523.09 1373.43 1523.21 1373.74L1524.54 1377.12C1524.7 1377.52 1524.5 1378.01 1524.09 1378.15C1523.98 1378.19 1523.88 1378.21 1523.78 1378.21Z" fill="#CED4E8"/>
<path d="M1489.38 1391.2C1489.28 1391.2 1489.17 1391.18 1489.06 1391.14C1488.67 1390.96 1488.47 1390.49 1488.66 1390.09L1489.39 1388.38C1489.53 1388.08 1489.82 1387.9 1490.12 1387.9C1490.23 1387.9 1490.34 1387.92 1490.45 1387.98C1490.85 1388.14 1491.03 1388.62 1490.87 1389.01L1490.11 1390.72C1489.99 1391.03 1489.69 1391.2 1489.38 1391.2Z" fill="#CED4E8"/>
<path d="M1491.58 1386.17C1491.48 1386.17 1491.37 1386.15 1491.27 1386.11C1490.87 1385.92 1490.68 1385.46 1490.85 1385.04L1492.31 1381.71C1492.46 1381.4 1492.75 1381.22 1493.06 1381.22C1493.17 1381.22 1493.27 1381.24 1493.37 1381.28C1493.77 1381.47 1493.95 1381.96 1493.79 1382.36L1492.33 1385.7C1492.19 1385.99 1491.89 1386.17 1491.58 1386.17ZM1494.51 1379.5C1494.41 1379.5 1494.29 1379.47 1494.19 1379.43C1493.79 1379.25 1493.61 1378.77 1493.77 1378.37L1495.24 1375.06C1495.36 1374.74 1495.66 1374.55 1495.97 1374.55C1496.08 1374.55 1496.19 1374.57 1496.3 1374.62C1496.69 1374.79 1496.89 1375.28 1496.69 1375.69L1495.24 1379.01C1495.12 1379.32 1494.82 1379.5 1494.51 1379.5Z" fill="#CED4E8"/>
<path d="M1460.99 1364.34C1460.67 1364.34 1460.37 1364.16 1460.25 1363.84C1460.08 1363.42 1460.29 1362.96 1460.69 1362.79L1462.43 1362.1C1462.53 1362.07 1462.63 1362.05 1462.72 1362.05C1463.05 1362.05 1463.36 1362.25 1463.48 1362.56C1463.63 1362.99 1463.43 1363.46 1463.03 1363.6L1461.28 1364.29C1461.19 1364.32 1461.09 1364.34 1460.99 1364.34Z" fill="#CED4E8"/>
<path d="M1466.11 1362.33C1465.8 1362.33 1465.5 1362.13 1465.38 1361.83C1465.21 1361.4 1465.41 1360.95 1465.84 1360.78L1469.21 1359.45C1469.3 1359.42 1469.4 1359.4 1469.49 1359.4C1469.82 1359.4 1470.13 1359.6 1470.25 1359.92C1470.43 1360.33 1470.22 1360.81 1469.8 1360.95L1466.4 1362.27C1466.31 1362.31 1466.21 1362.33 1466.11 1362.33ZM1472.9 1359.69C1472.58 1359.69 1472.28 1359.49 1472.15 1359.18C1472 1358.78 1472.2 1358.3 1472.6 1358.15L1476 1356.82C1476.1 1356.78 1476.2 1356.76 1476.31 1356.76C1476.62 1356.76 1476.91 1356.95 1477.03 1357.26C1477.19 1357.68 1476.98 1358.15 1476.58 1358.3L1473.19 1359.63C1473.1 1359.67 1473 1359.69 1472.9 1359.69Z" fill="#CED4E8"/>
<path d="M1461.59 1326.02C1461.49 1326.02 1461.39 1326 1461.3 1325.96L1459.58 1325.2C1459.18 1325.03 1458.99 1324.53 1459.18 1324.13C1459.31 1323.84 1459.61 1323.67 1459.92 1323.67C1460.03 1323.67 1460.14 1323.69 1460.25 1323.73L1461.95 1324.46C1462.36 1324.64 1462.54 1325.13 1462.36 1325.53C1462.23 1325.84 1461.92 1326.02 1461.59 1326.02Z" fill="#CED4E8"/>
<path d="M1474.97 1331.86C1474.86 1331.86 1474.75 1331.83 1474.64 1331.78L1471.31 1330.31C1470.91 1330.15 1470.73 1329.68 1470.9 1329.27C1471.03 1328.98 1471.33 1328.79 1471.63 1328.79C1471.74 1328.79 1471.85 1328.82 1471.95 1328.87L1475.28 1330.31C1475.7 1330.5 1475.89 1330.96 1475.7 1331.37C1475.58 1331.67 1475.28 1331.86 1474.97 1331.86ZM1468.28 1328.94C1468.18 1328.94 1468.07 1328.92 1467.97 1328.88L1464.64 1327.41C1464.23 1327.24 1464.05 1326.75 1464.22 1326.36C1464.36 1326.06 1464.66 1325.87 1464.98 1325.87C1465.08 1325.87 1465.19 1325.89 1465.29 1325.93L1468.63 1327.4C1469.03 1327.56 1469.21 1328.04 1469.03 1328.46C1468.89 1328.76 1468.6 1328.94 1468.28 1328.94Z" fill="#CED4E8"/>
<path d="M1487.48 1298.62C1487.15 1298.62 1486.84 1298.42 1486.72 1298.11L1486.03 1296.37C1485.88 1295.95 1486.08 1295.5 1486.49 1295.32C1486.58 1295.29 1486.67 1295.28 1486.76 1295.28C1487.09 1295.28 1487.4 1295.46 1487.52 1295.77L1488.22 1297.52C1488.37 1297.92 1488.16 1298.39 1487.76 1298.57C1487.67 1298.6 1487.57 1298.62 1487.48 1298.62Z" fill="#CED4E8"/>
<path d="M1492.77 1312.17C1492.45 1312.17 1492.14 1311.98 1492.03 1311.67L1490.7 1308.28C1490.53 1307.85 1490.72 1307.41 1491.15 1307.24C1491.25 1307.2 1491.35 1307.18 1491.45 1307.18C1491.77 1307.18 1492.06 1307.39 1492.17 1307.69L1493.5 1311.09C1493.68 1311.49 1493.47 1311.96 1493.06 1312.11C1492.97 1312.15 1492.87 1312.17 1492.77 1312.17ZM1490.11 1305.39C1489.79 1305.39 1489.49 1305.2 1489.38 1304.88L1488.05 1301.5C1487.88 1301.09 1488.08 1300.61 1488.5 1300.46C1488.6 1300.42 1488.7 1300.41 1488.8 1300.41C1489.12 1300.41 1489.42 1300.6 1489.53 1300.92L1490.85 1304.31C1491.02 1304.73 1490.81 1305.18 1490.41 1305.33C1490.31 1305.37 1490.21 1305.39 1490.11 1305.39Z" fill="#CED4E8"/>
<path d="M1507.63 1299.53L1507.13 1299.04V1297.89L1507.63 1297.4L1508.11 1297.89V1299.04L1507.63 1299.53Z" fill="#CED4E8"/>
<path d="M1507.63 1308.55L1507.13 1308.06V1301.12L1507.63 1300.63L1508.11 1301.12V1302.85V1303.56V1308.06L1507.63 1308.55Z" fill="#CED4E8"/>
<path d="M1538.83 1312.17H1538.15V1311.49L1538.96 1310.67H1539.65V1311.36L1538.83 1312.17Z" fill="#CED4E8"/>
<path d="M1532.45 1318.56H1531.76V1317.86L1534.96 1314.67L1535.45 1314.16L1536.67 1312.94H1537.38V1313.64L1536.15 1314.87L1535.65 1315.36L1532.45 1318.56Z" fill="#CED4E8"/>
<path d="M1552.43 1343.19H1551.3L1550.81 1342.71L1551.3 1342.21H1552.43L1552.92 1342.71L1552.43 1343.19Z" fill="#CED4E8"/>
<path d="M1549.2 1343.19H1542.27L1541.77 1342.71L1542.27 1342.21H1546.77H1547.5H1549.2L1549.69 1342.71L1549.2 1343.19Z" fill="#CED4E8"/>
<path d="M1539.65 1374.74H1538.96L1538.15 1373.91V1373.24H1538.83L1539.65 1374.05V1374.74Z" fill="#CED4E8"/>
<path d="M1537.38 1372.45H1536.67L1535.45 1371.24L1534.96 1370.72L1531.76 1367.54V1366.85H1532.45L1535.65 1370.05L1536.15 1370.54L1537.38 1371.75V1372.45Z" fill="#CED4E8"/>
<path d="M1507.63 1388.01L1507.13 1387.52V1386.37L1507.63 1385.87L1508.11 1386.37V1387.52L1507.63 1388.01Z" fill="#CED4E8"/>
<path d="M1507.63 1384.78L1507.13 1384.3V1377.34L1507.63 1376.85L1508.11 1377.34V1381.85V1382.58V1384.3L1507.63 1384.78Z" fill="#CED4E8"/>
<path d="M1476.29 1374.74H1475.59V1374.05L1476.41 1373.24H1477.1V1373.91L1476.29 1374.74Z" fill="#CED4E8"/>
<path d="M1478.56 1372.45H1477.87V1371.75L1479.08 1370.54L1479.59 1370.05L1482.77 1366.85H1483.46V1367.54L1480.28 1370.72L1479.78 1371.24L1478.56 1372.45Z" fill="#CED4E8"/>
<path d="M1463.95 1343.19H1462.82L1462.32 1342.71L1462.82 1342.21H1463.95L1464.44 1342.71L1463.95 1343.19Z" fill="#CED4E8"/>
<path d="M1472.97 1343.19H1466.03L1465.54 1342.71L1466.03 1342.21H1467.75H1468.47H1472.97L1473.46 1342.71L1472.97 1343.19Z" fill="#CED4E8"/>
<path d="M1477.1 1312.17H1476.41L1475.59 1311.36V1310.67H1476.29L1477.1 1311.49V1312.17Z" fill="#CED4E8"/>
<path d="M1483.46 1318.56H1482.77L1479.59 1315.36L1479.08 1314.87L1477.87 1313.64V1312.94H1478.58L1479.78 1314.16L1480.28 1314.67L1483.46 1317.86V1318.56Z" fill="#CED4E8"/>
<path d="M264.607 715.736C264.497 715.736 264.386 715.714 264.281 715.663C263.882 715.503 263.689 715.009 263.882 714.617L264.618 712.901C264.755 712.591 265.044 712.415 265.35 712.415C265.457 712.415 265.566 712.436 265.672 712.483C266.081 712.668 266.26 713.129 266.092 713.537L265.348 715.258C265.207 715.555 264.911 715.736 264.607 715.736Z" fill="#CED4E8"/>
<path d="M258.779 729.082C258.67 729.082 258.557 729.06 258.449 729.008C258.043 728.823 257.867 728.359 258.03 727.954L259.491 724.633C259.634 724.319 259.934 724.143 260.244 724.143C260.347 724.143 260.451 724.164 260.55 724.203C260.954 724.388 261.144 724.852 260.954 725.27L259.508 728.604C259.377 728.901 259.085 729.082 258.779 729.082ZM261.693 722.404C261.586 722.404 261.478 722.383 261.374 722.336C260.954 722.168 260.769 721.703 260.954 721.282L262.421 717.947C262.545 717.646 262.848 717.47 263.17 717.47C263.273 717.47 263.377 717.487 263.48 717.526C263.883 717.715 264.06 718.188 263.883 718.606L262.421 721.923C262.293 722.219 262.001 722.404 261.693 722.404Z" fill="#CED4E8"/>
<path d="M292.02 741.575C291.69 741.575 291.383 741.386 291.263 741.072C291.09 740.65 291.304 740.186 291.72 740.026L293.452 739.334C293.544 739.304 293.638 739.286 293.73 739.286C294.063 739.286 294.376 739.484 294.497 739.798C294.661 740.216 294.451 740.68 294.035 740.827L292.309 741.524C292.213 741.558 292.115 741.575 292.02 741.575Z" fill="#CED4E8"/>
<path d="M278.446 746.875C278.124 746.875 277.825 746.682 277.708 746.351C277.537 745.959 277.742 745.494 278.164 745.34L281.545 744.002C281.639 743.967 281.735 743.95 281.831 743.95C282.157 743.95 282.465 744.148 282.579 744.471C282.752 744.862 282.54 745.34 282.122 745.494L278.75 746.82C278.652 746.858 278.547 746.875 278.446 746.875ZM285.207 744.225C284.895 744.225 284.607 744.04 284.478 743.726C284.327 743.305 284.528 742.84 284.926 742.685L288.335 741.356C288.431 741.317 288.529 741.3 288.625 741.3C288.941 741.3 289.235 741.493 289.368 741.812C289.516 742.203 289.321 742.685 288.909 742.84L285.515 744.161C285.412 744.204 285.308 744.225 285.207 744.225Z" fill="#CED4E8"/>
<path d="M294.836 779.965C294.727 779.965 294.616 779.943 294.508 779.896L292.801 779.147C292.394 778.958 292.212 778.498 292.372 778.089C292.515 777.792 292.806 777.616 293.106 777.616C293.214 777.616 293.323 777.637 293.427 777.684L295.145 778.416C295.545 778.605 295.735 779.087 295.57 779.483C295.431 779.788 295.144 779.965 294.836 779.965Z" fill="#CED4E8"/>
<path d="M289.794 777.753C289.683 777.753 289.572 777.731 289.465 777.684L286.126 776.23C285.722 776.062 285.537 775.58 285.697 775.176C285.836 774.87 286.135 774.703 286.443 774.703C286.549 774.703 286.658 774.724 286.761 774.767L290.103 776.217C290.512 776.402 290.688 776.884 290.512 777.284C290.391 777.581 290.1 777.753 289.794 777.753ZM283.127 774.84C283.02 774.84 282.911 774.819 282.806 774.767L279.457 773.326C279.054 773.137 278.862 772.663 279.047 772.246C279.174 771.958 279.464 771.781 279.766 771.781C279.877 771.781 279.99 771.803 280.097 771.855L283.428 773.326C283.843 773.494 284.021 773.945 283.843 774.35C283.71 774.655 283.426 774.84 283.127 774.84Z" fill="#CED4E8"/>
<path d="M267.957 808.35C267.64 808.35 267.335 808.157 267.209 807.851L266.542 806.109C266.366 805.692 266.584 805.227 266.986 805.072C267.083 805.033 267.182 805.012 267.28 805.012C267.603 805.012 267.903 805.214 268.033 805.532L268.705 807.27C268.868 807.675 268.666 808.144 268.243 808.299C268.149 808.333 268.053 808.35 267.957 808.35Z" fill="#CED4E8"/>
<path d="M265.964 803.231C265.635 803.231 265.332 803.024 265.209 802.71L263.882 799.329C263.731 798.92 263.924 798.447 264.331 798.296C264.43 798.262 264.531 798.245 264.628 798.245C264.951 798.245 265.246 798.434 265.369 798.752L266.705 802.151C266.852 802.543 266.65 803.007 266.257 803.175C266.159 803.214 266.06 803.231 265.964 803.231ZM263.302 796.446C262.98 796.446 262.672 796.257 262.546 795.96L261.218 792.553C261.075 792.14 261.263 791.671 261.675 791.516C261.771 791.482 261.869 791.469 261.963 791.469C262.285 791.469 262.583 791.658 262.711 791.972L264.05 795.358C264.198 795.762 263.991 796.235 263.588 796.395C263.494 796.429 263.398 796.446 263.302 796.446Z" fill="#CED4E8"/>
<path d="M228.886 809.439C228.778 809.439 228.669 809.418 228.565 809.375C228.156 809.185 227.968 808.729 228.156 808.329L228.897 806.608C229.03 806.303 229.322 806.126 229.63 806.126C229.738 806.126 229.849 806.148 229.956 806.191C230.363 806.363 230.544 806.836 230.363 807.245L229.615 808.962C229.48 809.267 229.192 809.439 228.886 809.439Z" fill="#CED4E8"/>
<path d="M231.092 804.392C230.988 804.392 230.882 804.371 230.781 804.328C230.364 804.151 230.193 803.674 230.364 803.274L231.818 799.926C231.947 799.63 232.252 799.445 232.564 799.445C232.672 799.445 232.779 799.466 232.88 799.513C233.28 799.698 233.461 800.163 233.28 800.58L231.818 803.906C231.699 804.207 231.401 804.392 231.092 804.392ZM234.011 797.724C233.905 797.724 233.798 797.702 233.692 797.655C233.28 797.478 233.103 797.014 233.28 796.609L234.731 793.245C234.861 792.961 235.149 792.78 235.455 792.78C235.566 792.78 235.68 792.806 235.789 792.858C236.187 793.038 236.377 793.49 236.213 793.908L234.746 797.242C234.603 797.543 234.317 797.724 234.011 797.724Z" fill="#CED4E8"/>
<path d="M200.525 782.571C200.195 782.571 199.884 782.382 199.752 782.051C199.6 781.655 199.794 781.182 200.193 781.014L201.95 780.356C202.049 780.308 202.153 780.287 202.254 780.287C202.565 780.287 202.859 780.48 202.978 780.794C203.143 781.212 202.941 781.681 202.516 781.831L200.79 782.528C200.703 782.558 200.614 782.571 200.525 782.571Z" fill="#CED4E8"/>
<path d="M205.606 780.549C205.292 780.549 204.995 780.364 204.869 780.046C204.726 779.633 204.919 779.177 205.322 779.009L208.721 777.684C208.818 777.65 208.917 777.632 209.013 777.632C209.332 777.632 209.63 777.822 209.756 778.14C209.91 778.557 209.712 779.009 209.311 779.177L205.914 780.489C205.813 780.528 205.709 780.549 205.606 780.549ZM212.391 777.903C212.078 777.903 211.781 777.714 211.661 777.391C211.494 776.991 211.688 776.522 212.12 776.372L215.507 775.038C215.601 774.999 215.698 774.982 215.796 774.982C216.113 774.982 216.419 775.18 216.532 775.498C216.7 775.899 216.495 776.372 216.078 776.522L212.687 777.847C212.591 777.886 212.49 777.903 212.391 777.903Z" fill="#CED4E8"/>
<path d="M201.123 744.247C201.017 744.247 200.911 744.226 200.811 744.178L199.088 743.421C198.693 743.249 198.508 742.767 198.693 742.371C198.814 742.083 199.101 741.898 199.409 741.898C199.517 741.898 199.626 741.924 199.73 741.971L201.446 742.703C201.849 742.892 202.024 743.365 201.87 743.77C201.725 744.062 201.429 744.247 201.123 744.247Z" fill="#CED4E8"/>
<path d="M214.476 750.077C214.367 750.077 214.255 750.051 214.145 749.999L210.801 748.554C210.403 748.386 210.216 747.913 210.403 747.517C210.527 747.203 210.823 747.026 211.13 747.026C211.238 747.026 211.349 747.048 211.451 747.095L214.779 748.554C215.187 748.721 215.372 749.186 215.204 749.591C215.067 749.892 214.78 750.077 214.476 750.077ZM207.796 747.16C207.692 747.16 207.585 747.138 207.482 747.095L204.15 745.632C203.726 745.452 203.541 744.983 203.726 744.578C203.859 744.277 204.161 744.105 204.475 744.105C204.58 744.105 204.684 744.122 204.785 744.161L208.109 745.632C208.519 745.809 208.701 746.295 208.538 746.678C208.393 746.988 208.1 747.16 207.796 747.16Z" fill="#CED4E8"/>
<path d="M226.97 716.842C226.649 716.842 226.345 716.652 226.224 716.334L225.536 714.587C225.369 714.191 225.569 713.718 225.989 713.537C226.076 713.507 226.165 713.494 226.254 713.494C226.582 713.494 226.903 713.688 227.031 714.015L227.708 715.753C227.876 716.166 227.666 716.622 227.254 716.79C227.16 716.824 227.064 716.842 226.97 716.842Z" fill="#CED4E8"/>
<path d="M232.257 730.394C231.94 730.394 231.648 730.204 231.527 729.907L230.193 726.513C230.048 726.078 230.243 725.627 230.642 725.459C230.736 725.42 230.831 725.407 230.927 725.407C231.255 725.407 231.564 725.605 231.687 725.919L233.023 729.305C233.162 729.722 232.966 730.174 232.565 730.333C232.463 730.372 232.359 730.394 232.257 730.394ZM229.623 723.618C229.304 723.618 228.993 723.433 228.873 723.114L227.537 719.733C227.381 719.324 227.583 718.851 228.011 718.7C228.112 718.657 228.218 718.636 228.32 718.636C228.626 718.636 228.914 718.829 229.028 719.139L230.364 722.533C230.532 722.946 230.322 723.411 229.911 723.566C229.818 723.6 229.72 723.618 229.623 723.618Z" fill="#CED4E8"/>
<path d="M247.124 717.745L246.632 717.272V716.127L247.124 715.646L247.615 716.127V717.272L247.124 717.745Z" fill="#CED4E8"/>
<path d="M247.124 726.775L246.632 726.294V719.354L247.124 718.851L247.615 719.354V721.062V721.78V726.294L247.124 726.775Z" fill="#CED4E8"/>
<path d="M278.347 730.402H277.66V729.723L278.457 728.905H279.154V729.602L278.347 730.402Z" fill="#CED4E8"/>
<path d="M271.963 736.778H271.269V736.09L274.465 732.906L274.969 732.377L276.176 731.181H276.865V731.869L275.655 733.096L275.156 733.59L271.963 736.778Z" fill="#CED4E8"/>
<path d="M291.922 761.435H290.796L290.288 760.936L290.796 760.449H291.922L292.426 760.936L291.922 761.435Z" fill="#CED4E8"/>
<path d="M288.714 761.435H281.756L281.272 760.936L281.756 760.449H286.282H286.994H288.714L289.196 760.936L288.714 761.435Z" fill="#CED4E8"/>
<path d="M279.154 792.957H278.457L277.66 792.157V791.46H278.347L279.154 792.265V792.957Z" fill="#CED4E8"/>
<path d="M276.865 790.686H276.176L274.969 789.455L274.465 788.96L271.269 785.759V785.08H271.963L275.156 788.259L275.655 788.784L276.865 789.984V790.686Z" fill="#CED4E8"/>
<path d="M247.124 806.217L246.632 805.752V804.603L247.124 804.121L247.615 804.603V805.752L247.124 806.217Z" fill="#CED4E8"/>
<path d="M247.124 803.007L246.632 802.512V795.573L247.124 795.087L247.615 795.573V800.082V800.8V802.512L247.124 803.007Z" fill="#CED4E8"/>
<path d="M215.767 792.957H215.086V792.265L215.893 791.46H216.591V792.157L215.767 792.957Z" fill="#CED4E8"/>
<path d="M218.065 790.686H217.377V789.984L218.579 788.784L219.09 788.259L222.279 785.08H222.969V785.759L219.776 788.96L219.271 789.455L218.065 790.686Z" fill="#CED4E8"/>
<path d="M203.458 761.435H202.312L201.833 760.936L202.312 760.449H203.458L203.951 760.936L203.458 761.435Z" fill="#CED4E8"/>
<path d="M212.487 761.435H205.541L205.049 760.936L205.541 760.449H207.255H207.97H212.487L212.973 760.936L212.487 761.435Z" fill="#CED4E8"/>
<path d="M216.591 730.402H215.893L215.086 729.602V728.905H215.767L216.591 729.723V730.402Z" fill="#CED4E8"/>
<path d="M222.969 736.778H222.279L219.09 733.59L218.579 733.096L217.377 731.869V731.181H218.065L219.271 732.377L219.776 732.906L222.969 736.09V736.778Z" fill="#CED4E8"/>
<path d="M1840.79 391.007H1803.21C1794.3 391.007 1787.11 388.985 1787.11 386.438C1787.11 383.925 1794.3 381.873 1803.21 381.873H1840.79C1849.69 381.873 1856.91 383.925 1856.91 386.438C1856.91 388.985 1849.69 391.007 1840.79 391.007Z" fill="#CED4E8"/>
<path d="M1734.52 391.007H1505.6C1496.7 391.007 1489.49 388.985 1489.49 386.438C1489.49 383.925 1496.7 381.873 1505.6 381.873H1654.39H1677.89H1734.52C1743.43 381.873 1750.66 383.925 1750.66 386.438C1750.66 388.985 1743.43 391.007 1734.52 391.007Z" fill="#B3CCDB"/>
<path d="M714.844 1164.14H678.227C669.33 1164.14 662.124 1162.09 662.124 1159.56C662.124 1157.04 669.33 1155 678.227 1155H700.827C705.486 1158.08 710.172 1161.13 714.844 1164.14Z" fill="#CED4E8"/>
<path d="M715.825 1164.14H714.844C710.172 1161.13 705.486 1158.08 700.827 1155H715.825C724.73 1155 731.919 1157.04 731.919 1159.56C731.919 1162.09 724.73 1164.14 715.825 1164.14Z" fill="#A5C8D4"/>
<path d="M609.56 1164.14H380.636C371.728 1164.14 364.518 1162.09 364.518 1159.56C364.518 1157.04 371.728 1155 380.636 1155H529.435H552.912H609.56C618.47 1155 625.667 1157.04 625.667 1159.56C625.667 1162.09 618.47 1164.14 609.56 1164.14Z" fill="#CED4E8"/>
<path d="M440.851 939.38H403.265C394.353 939.38 387.147 937.332 387.147 934.789C387.147 932.272 394.353 930.22 403.265 930.22H438.253C440.959 933.193 443.669 936.14 446.419 939.1C444.681 939.281 442.809 939.38 440.851 939.38Z" fill="#CED4E8"/>
<path d="M446.419 939.1C443.669 936.14 440.959 933.193 438.253 930.22H440.851C449.757 930.22 456.968 932.272 456.968 934.789C456.968 936.773 452.575 938.455 446.419 939.1Z" fill="#A5C8D4"/>
<path d="M334.583 939.38H105.657C96.7532 939.38 89.5435 937.332 89.5435 934.789C89.5435 932.272 96.7532 930.22 105.657 930.22H254.454H277.936H334.583C343.49 930.22 350.688 932.272 350.688 934.789C350.688 937.332 343.49 939.38 334.583 939.38Z" fill="#CED4E8"/>
<path d="M476.805 112.905C476.723 112.905 476.645 112.905 476.564 112.905L437.491 112.875C428.255 112.862 420.721 111.162 420.665 109.071C420.653 106.993 428.095 105.328 437.362 105.328L476.417 105.376C485.654 105.406 493.183 107.097 493.231 109.166C493.256 111.227 485.947 112.905 476.805 112.905Z" fill="#A5C8D4"/>
<path d="M288.778 112.689L285.255 112.685C276.003 112.672 268.485 110.969 268.433 108.882C268.4 106.825 275.808 105.13 284.988 105.13C285.028 105.13 285.069 105.13 285.109 105.13L298.288 105.148C295.064 107.6 291.898 110.108 288.778 112.689Z" fill="#CED4E8"/>
<path d="M361.5 112.768C361.458 112.768 361.418 112.768 361.378 112.768L288.777 112.69C291.898 110.109 295.064 107.601 298.287 105.148L361.226 105.239C370.481 105.256 377.998 106.96 378.03 109.02C378.103 111.098 370.686 112.768 361.5 112.768Z" fill="#A5C8D4"/>
<path d="M209.138 112.578L133.014 112.475C123.771 112.466 116.259 110.762 116.211 108.667C116.157 106.632 123.498 104.954 132.647 104.954C132.721 104.954 132.792 104.954 132.866 104.954L208.987 105.019C218.23 105.049 225.771 106.744 225.813 108.839C225.851 110.917 218.386 112.578 209.138 112.578Z" fill="#CED4E8"/>
<path d="M869.01 1383.64C868.963 1383.64 868.92 1383.64 868.873 1383.64L829.795 1383.57C820.546 1383.57 813.025 1381.89 812.987 1379.8C812.943 1377.72 820.343 1376.05 829.52 1376.05C829.567 1376.05 829.61 1376.05 829.658 1376.05L868.735 1376.1C877.972 1376.1 885.492 1377.81 885.535 1379.9C885.57 1381.96 878.191 1383.64 869.01 1383.64Z" fill="#CED4E8"/>
<path d="M753.792 1383.47C753.757 1383.47 753.723 1383.47 753.688 1383.47L677.573 1383.38C668.31 1383.38 660.803 1381.68 660.751 1379.61C660.717 1377.51 668.173 1375.86 677.431 1375.86L753.542 1375.95C762.788 1375.97 770.312 1377.67 770.351 1379.73C770.39 1381.81 762.981 1383.47 753.792 1383.47ZM601.54 1383.29C601.505 1383.29 601.471 1383.29 601.436 1383.29L525.334 1383.21C516.067 1383.17 508.559 1381.48 508.512 1379.39C508.456 1377.33 515.882 1375.66 525.097 1375.66C525.132 1375.66 525.166 1375.66 525.2 1375.66L601.307 1375.76C610.54 1375.77 618.073 1377.47 618.129 1379.55C618.163 1381.6 610.759 1383.29 601.54 1383.29Z" fill="#CED4E8"/>
<path d="M1902.64 1230.36L1863.56 1230.3C1854.33 1230.3 1846.79 1228.6 1846.76 1226.51C1846.73 1224.43 1854.18 1222.78 1863.43 1222.78L1902.51 1222.83C1911.74 1222.83 1919.26 1224.54 1919.31 1226.62C1919.35 1228.69 1911.88 1230.36 1902.64 1230.36Z" fill="#CED4E8"/>
<path d="M1787.59 1230.22C1787.54 1230.22 1787.5 1230.22 1787.45 1230.22L1711.33 1230.13C1702.09 1230.1 1694.55 1228.4 1694.52 1226.32C1694.49 1224.23 1701.95 1222.57 1711.19 1222.57L1787.31 1222.7C1796.55 1222.7 1804.08 1224.39 1804.13 1226.48C1804.16 1228.53 1796.77 1230.22 1787.59 1230.22ZM1635.29 1230.01C1635.27 1230.01 1635.25 1230.01 1635.22 1230.01L1559.1 1229.92C1549.84 1229.9 1542.33 1228.2 1542.29 1226.12C1542.23 1224.07 1549.59 1222.39 1558.73 1222.39C1558.81 1222.39 1558.89 1222.39 1558.97 1222.39L1635.08 1222.49C1644.32 1222.49 1651.85 1224.2 1651.89 1226.26C1651.93 1228.35 1644.51 1230.01 1635.29 1230.01Z" fill="#CED4E8"/>
<path d="M1881.62 870.294C1881.54 870.294 1881.46 870.294 1881.38 870.294L1842.29 870.243C1833.05 870.243 1825.52 868.556 1825.49 866.448C1825.46 864.379 1832.92 862.718 1842.17 862.718L1881.23 862.77C1890.46 862.782 1898 864.473 1898.04 866.56C1898.06 868.633 1890.74 870.294 1881.62 870.294Z" fill="#CED4E8"/>
<path d="M1766.18 870.157L1764.1 870.152C1765.04 867.644 1765.97 865.149 1766.89 862.645C1775.74 862.74 1782.82 864.383 1782.84 866.409C1782.9 868.475 1775.43 870.157 1766.18 870.157Z" fill="#CED4E8"/>
<path d="M1764.1 870.152L1690.06 870.062C1680.81 870.045 1673.28 868.345 1673.26 866.254C1673.21 864.181 1680.68 862.52 1689.92 862.52L1766.05 862.64C1766.33 862.64 1766.61 862.64 1766.89 862.645C1765.97 865.149 1765.05 867.644 1764.1 870.152ZM1613.94 869.967L1585.51 869.924C1584.91 867.42 1584.29 864.89 1583.65 862.378L1613.81 862.412C1623.04 862.442 1630.58 864.129 1630.63 866.216C1630.65 868.276 1623.2 869.967 1613.94 869.967Z" fill="#B3CCDB"/>
<path d="M1585.51 869.924L1537.8 869.855C1528.57 869.838 1521.06 868.139 1521 866.048C1520.96 864.021 1528.29 862.326 1537.46 862.326C1537.54 862.326 1537.62 862.326 1537.7 862.326L1583.65 862.378C1584.29 864.89 1584.91 867.42 1585.51 869.924Z" fill="#93C3CC"/>
<path d="M449.98 527.143C449.959 527.143 449.937 527.143 449.911 527.143L410.822 527.082C401.587 527.065 394.059 525.379 394.025 523.296C393.988 521.231 401.453 519.541 410.691 519.541L449.769 519.601C459.006 519.614 466.518 521.313 466.565 523.391C466.591 525.46 459.178 527.143 449.98 527.143Z" fill="#A5C8D4"/>
<path d="M334.892 526.988C334.83 526.988 334.768 526.988 334.706 526.988L258.605 526.88C249.345 526.88 241.816 525.189 241.76 523.09C241.752 521.025 249.202 519.351 258.448 519.351L334.583 519.459C343.823 519.459 351.347 521.154 351.377 523.249C351.426 525.314 344.057 526.988 334.892 526.988Z" fill="#A5C8D4"/>
<path d="M182.476 526.79L106.363 526.682C97.1027 526.682 89.5992 524.991 89.5437 522.905C89.4951 520.823 96.9061 519.153 106.089 519.153C106.129 519.153 106.169 519.153 106.211 519.153L182.338 519.257C191.564 519.257 199.11 520.956 199.155 523.06C199.192 525.129 191.71 526.79 182.476 526.79Z" fill="#CED4E8"/>
<path d="M1860.5 619.305H1847.27C1844.13 619.305 1841.58 618.617 1841.58 617.718C1841.58 616.819 1844.13 616.1 1847.27 616.1H1860.5C1863.64 616.1 1866.18 616.819 1866.18 617.718C1866.18 618.617 1863.64 619.305 1860.5 619.305Z" fill="#CED4E8"/>
<path d="M1880.15 603.125C1879.25 603.125 1878.53 600.608 1878.53 597.454V584.208C1878.53 581.071 1879.25 578.537 1880.15 578.537C1881.03 578.537 1881.77 581.071 1881.77 584.208V597.454C1881.77 600.608 1881.03 603.125 1880.15 603.125Z" fill="#CED4E8"/>
<path d="M1913.64 618.712H1900.39C1897.26 618.712 1894.73 617.98 1894.73 617.094C1894.73 616.195 1897.26 615.481 1900.39 615.481H1913.64C1916.77 615.481 1919.31 616.195 1919.31 617.094C1919.31 617.98 1916.77 618.712 1913.64 618.712Z" fill="#CED4E8"/>
<path d="M1880.76 656.288C1879.88 656.288 1879.16 653.728 1879.16 650.596V637.358C1879.16 634.204 1879.88 631.674 1880.76 631.674C1881.66 631.674 1882.36 634.204 1882.36 637.358V650.596C1882.36 653.728 1881.66 656.288 1880.76 656.288Z" fill="#CED4E8"/>
<path d="M1872.87 610.567C1872.19 610.567 1870.86 609.737 1869.57 608.438L1862.98 601.834C1861.43 600.298 1860.52 598.667 1860.98 598.224C1861.05 598.147 1861.16 598.108 1861.3 598.108C1861.97 598.108 1863.31 598.938 1864.58 600.242L1871.17 606.846C1872.73 608.378 1873.64 610.017 1873.2 610.451C1873.12 610.533 1873.01 610.567 1872.87 610.567Z" fill="#CED4E8"/>
<path d="M1887.75 610.258C1887.6 610.258 1887.49 610.219 1887.41 610.142C1886.96 609.707 1887.86 608.094 1889.43 606.523L1896.01 599.941C1897.3 598.646 1898.63 597.807 1899.31 597.807C1899.45 597.807 1899.56 597.846 1899.64 597.923C1900.07 598.375 1899.17 599.963 1897.6 601.541L1891.02 608.128C1889.75 609.427 1888.41 610.258 1887.75 610.258Z" fill="#CED4E8"/>
<path d="M1899.63 636.7C1898.97 636.7 1897.61 635.861 1896.31 634.561L1889.72 627.966C1888.15 626.409 1887.27 624.782 1887.7 624.361C1887.78 624.283 1887.9 624.245 1888.04 624.245C1888.71 624.245 1890.04 625.071 1891.32 626.366L1897.92 632.944C1899.46 634.527 1900.37 636.158 1899.94 636.601C1899.87 636.67 1899.76 636.7 1899.63 636.7Z" fill="#CED4E8"/>
<path d="M1861.61 636.987C1861.47 636.987 1861.36 636.953 1861.28 636.871C1860.84 636.458 1861.73 634.832 1863.29 633.274L1869.89 626.671C1871.18 625.371 1872.52 624.532 1873.19 624.532C1873.33 624.532 1873.43 624.567 1873.51 624.644C1873.94 625.092 1873.04 626.722 1871.49 628.271L1864.89 634.871C1863.62 636.161 1862.28 636.987 1861.61 636.987Z" fill="#CED4E8"/>
<path d="M172.207 1342.71H158.973C155.83 1342.71 153.293 1341.98 153.293 1341.1C153.293 1340.19 155.83 1339.48 158.973 1339.48H172.207C175.35 1339.48 177.879 1340.19 177.879 1341.1C177.879 1341.98 175.35 1342.71 172.207 1342.71Z" fill="#CED4E8"/>
<path d="M191.854 1326.5C190.96 1326.5 190.237 1323.96 190.237 1320.86V1307.6C190.237 1304.46 190.96 1301.93 191.854 1301.93C192.745 1301.93 193.464 1304.46 193.464 1307.6V1320.86C193.464 1323.96 192.745 1326.5 191.854 1326.5Z" fill="#CED4E8"/>
<path d="M225.356 1342.09H212.1C208.967 1342.09 206.433 1341.39 206.433 1340.47C206.433 1339.61 208.967 1338.86 212.1 1338.86H225.356C228.478 1338.86 231.016 1339.61 231.016 1340.47C231.016 1341.39 228.478 1342.09 225.356 1342.09Z" fill="#CED4E8"/>
<path d="M192.47 1379.65C191.584 1379.65 190.861 1377.11 190.861 1373.97V1360.73C190.861 1357.58 191.584 1355.05 192.47 1355.05C193.348 1355.05 194.068 1357.58 194.068 1360.73V1373.97C194.068 1377.11 193.348 1379.65 192.47 1379.65Z" fill="#CED4E8"/>
<path d="M184.574 1333.95C183.895 1333.95 182.565 1333.1 181.288 1331.81L174.69 1325.23C173.136 1323.67 172.228 1322.06 172.679 1321.6C172.753 1321.53 172.862 1321.49 172.998 1321.49C173.665 1321.49 175.003 1322.34 176.297 1323.63L182.874 1330.22C184.448 1331.78 185.353 1333.38 184.91 1333.83C184.831 1333.91 184.717 1333.95 184.574 1333.95Z" fill="#CED4E8"/>
<path d="M199.437 1333.64C199.295 1333.64 199.184 1333.6 199.11 1333.53C198.651 1333.1 199.559 1331.47 201.117 1329.92L207.706 1323.32C209.007 1322.03 210.34 1321.19 211.016 1321.19C211.153 1321.19 211.263 1321.22 211.34 1321.29C211.782 1321.75 210.866 1323.37 209.312 1324.93L202.718 1331.52C201.444 1332.8 200.105 1333.64 199.437 1333.64Z" fill="#CED4E8"/>
<path d="M211.309 1360.08C210.635 1360.08 209.297 1359.23 208.015 1357.94L201.424 1351.35C199.861 1349.79 198.953 1348.16 199.418 1347.72C199.491 1347.65 199.597 1347.62 199.73 1347.62C200.39 1347.62 201.741 1348.47 203.04 1349.76L209.608 1356.35C211.166 1357.91 212.074 1359.52 211.642 1359.96C211.566 1360.04 211.451 1360.08 211.309 1360.08Z" fill="#CED4E8"/>
<path d="M173.314 1360.38C173.173 1360.38 173.06 1360.35 172.985 1360.27C172.528 1359.82 173.427 1358.19 174.998 1356.65L181.589 1350.06C182.891 1348.77 184.241 1347.92 184.907 1347.92C185.041 1347.92 185.147 1347.95 185.221 1348.03C185.639 1348.48 184.74 1350.1 183.182 1351.66L176.599 1358.25C175.319 1359.54 173.985 1360.38 173.314 1360.38Z" fill="#CED4E8"/>
<path d="M619.485 127.959H606.252C603.111 127.959 600.568 127.236 600.568 126.35C600.568 125.464 603.111 124.75 606.252 124.75H619.485C622.63 124.75 625.164 125.464 625.164 126.35C625.164 127.236 622.63 127.959 619.485 127.959Z" fill="#A5C8D4"/>
<path d="M639.133 111.774C638.234 111.774 637.516 109.227 637.516 106.103V92.8481C637.516 89.7204 638.234 87.1864 639.133 87.1864C640.015 87.1864 640.738 89.7204 640.738 92.8481V106.103C640.738 109.227 640.015 111.774 639.133 111.774Z" fill="#A5C8D4"/>
<path d="M672.609 127.353H659.371C656.247 127.353 653.709 126.63 653.709 125.744C653.709 124.844 656.247 124.139 659.371 124.139H672.609C675.749 124.139 678.283 124.844 678.283 125.744C678.283 126.63 675.749 127.353 672.609 127.353Z" fill="#A5C8D4"/>
<path d="M639.727 164.889C638.832 164.889 638.135 162.377 638.135 159.236V145.998C638.135 142.849 638.832 140.319 639.727 140.319C640.626 140.319 641.345 142.849 641.345 145.998V159.236C641.345 162.377 640.626 164.889 639.727 164.889Z" fill="#A5C8D4"/>
<path d="M631.867 119.208C631.187 119.208 629.853 118.369 628.558 117.078L621.967 110.5C620.401 108.934 619.502 107.303 619.962 106.856C620.031 106.787 620.134 106.753 620.268 106.753C620.926 106.753 622.26 107.6 623.568 108.882L630.15 115.465C631.716 117.031 632.615 118.661 632.189 119.1C632.112 119.173 632.004 119.208 631.867 119.208Z" fill="#A5C8D4"/>
<path d="M646.7 118.911C646.562 118.911 646.455 118.876 646.377 118.799C645.934 118.351 646.838 116.725 648.399 115.159L654.982 108.572C656.285 107.299 657.615 106.447 658.277 106.447C658.415 106.447 658.522 106.481 658.596 106.555C659.052 106.993 658.144 108.633 656.582 110.19L649.991 116.772C648.7 118.072 647.371 118.911 646.7 118.911Z" fill="#A5C8D4"/>
<path d="M658.593 145.331C657.918 145.331 656.588 144.484 655.293 143.201L648.698 136.61C647.132 135.066 646.229 133.431 646.685 132.992C646.762 132.915 646.874 132.876 647.016 132.876C647.683 132.876 649.012 133.715 650.303 135.01L656.89 141.592C658.447 143.158 659.359 144.772 658.92 145.219C658.843 145.297 658.731 145.331 658.593 145.331Z" fill="#A5C8D4"/>
<path d="M620.586 145.632C620.448 145.632 620.336 145.598 620.263 145.52C619.803 145.082 620.702 143.451 622.277 141.915L628.855 135.324C630.15 134.025 631.479 133.186 632.154 133.186C632.292 133.186 632.408 133.22 632.486 133.298C632.92 133.737 632.021 135.354 630.451 136.92L623.873 143.503C622.573 144.785 621.248 145.632 620.586 145.632Z" fill="#A5C8D4"/>
<path d="M255.485 310.692C253.161 310.692 250.934 309.402 249.833 307.177C248.296 304.08 249.57 300.29 252.678 298.736L292.994 278.74L252.678 258.708C249.57 257.155 248.296 253.382 249.833 250.272C250.936 248.06 253.164 246.77 255.478 246.77C256.421 246.77 257.377 246.98 258.278 247.436L309.959 273.082C312.107 274.149 313.468 276.326 313.468 278.74C313.468 281.119 312.107 283.304 309.959 284.38L258.278 310.026C257.371 310.469 256.43 310.692 255.485 310.692Z" fill="#A5C8D4"/>
<path d="M181.857 307.56L135.151 284.38C133.003 283.304 131.647 281.119 131.647 278.74C131.647 276.326 133.003 274.149 135.151 273.082L186.823 247.436C187.729 246.98 188.689 246.77 189.633 246.77C191.952 246.77 194.181 248.06 195.273 250.272C195.313 250.353 195.35 250.431 195.387 250.512C194.519 253.154 193.692 255.779 192.885 258.454C192.737 258.545 192.583 258.627 192.425 258.708L152.125 278.74L184.075 294.593C183.264 298.887 182.526 303.202 181.857 307.56Z" fill="#CED4E8"/>
<path d="M189.618 310.692C188.685 310.692 187.727 310.469 186.823 310.026L181.857 307.56C182.526 303.202 183.264 298.887 184.075 294.593L192.425 298.736C195.55 300.29 196.819 304.08 195.273 307.177C194.177 309.402 191.937 310.692 189.618 310.692ZM192.885 258.455C193.692 255.779 194.518 253.154 195.387 250.512C196.681 253.417 195.596 256.82 192.885 258.455Z" fill="#A5C8D4"/>
<path d="M212.508 336.054C212.105 336.054 211.689 336.02 211.281 335.942C207.861 335.263 205.651 331.954 206.315 328.538L226.426 226.446C227.016 223.451 229.638 221.369 232.575 221.369C232.989 221.369 233.409 221.412 233.829 221.498C237.246 222.152 239.469 225.469 238.797 228.885L218.675 330.973C218.084 333.972 215.454 336.054 212.508 336.054Z" fill="#A5C8D4"/>
<path d="M1848.36 151.496C1846.75 151.496 1845.2 150.614 1844.44 149.07C1843.36 146.902 1844.24 144.277 1846.41 143.202L1874.41 129.31L1846.41 115.392C1844.24 114.316 1843.36 111.701 1844.44 109.528C1845.2 107.992 1846.74 107.101 1848.35 107.101C1849.01 107.101 1849.68 107.252 1850.31 107.566L1886.2 125.382C1887.68 126.13 1888.62 127.649 1888.62 129.31C1888.62 130.975 1887.68 132.493 1886.19 133.242L1850.31 151.045C1849.68 151.35 1849.02 151.496 1848.36 151.496Z" fill="#CED4E8"/>
<path d="M1802.62 151.496C1801.97 151.496 1801.3 151.35 1800.68 151.045L1764.77 133.242C1763.28 132.493 1762.35 130.975 1762.35 129.31C1762.35 127.649 1763.28 126.13 1764.77 125.382L1800.68 107.566C1801.31 107.252 1801.97 107.101 1802.63 107.101C1804.23 107.101 1805.78 107.992 1806.54 109.528C1807.61 111.701 1806.73 114.316 1804.56 115.392L1776.57 129.31L1804.56 143.202C1806.73 144.277 1807.61 146.902 1806.54 149.07C1805.78 150.614 1804.22 151.496 1802.62 151.496Z" fill="#CED4E8"/>
<path d="M1818.51 169.123L1817.65 169.037C1815.29 168.568 1813.74 166.27 1814.21 163.895L1828.17 92.9943C1828.58 90.9206 1830.4 89.4708 1832.45 89.4708C1832.73 89.4708 1833.02 89.5009 1833.31 89.5568C1835.68 90.0258 1837.23 92.3231 1836.76 94.6851L1822.8 165.599C1822.38 167.681 1820.55 169.123 1818.51 169.123Z" fill="#CED4E8"/>
<path d="M590.148 1306.61C588.544 1306.61 586.995 1305.73 586.238 1304.17C585.158 1302.01 586.044 1299.39 588.208 1298.3L616.198 1284.42L588.208 1270.51C586.044 1269.43 585.158 1266.81 586.238 1264.63C586.995 1263.1 588.539 1262.21 590.144 1262.21C590.802 1262.21 591.469 1262.36 592.097 1262.68L627.987 1280.5C629.479 1281.23 630.413 1282.76 630.413 1284.42C630.413 1286.07 629.471 1287.6 627.987 1288.35L592.097 1306.15C591.473 1306.46 590.807 1306.61 590.148 1306.61Z" fill="#CED4E8"/>
<path d="M544.412 1306.61C543.753 1306.61 543.095 1306.46 542.467 1306.15L506.569 1288.35C505.072 1287.6 504.138 1286.07 504.138 1284.42C504.138 1282.76 505.072 1281.23 506.569 1280.5L542.467 1262.68C543.095 1262.36 543.762 1262.21 544.42 1262.21C546.029 1262.21 547.574 1263.11 548.339 1264.65C549.402 1266.81 548.524 1269.43 546.36 1270.51L518.348 1284.42L546.36 1298.3C548.524 1299.39 549.402 1302 548.339 1304.17C547.569 1305.73 546.021 1306.61 544.412 1306.61Z" fill="#CED4E8"/>
<path d="M560.299 1324.23L559.439 1324.15C557.077 1323.68 555.528 1321.38 555.997 1319L569.958 1248.1C570.375 1246 572.221 1244.57 574.281 1244.57C574.552 1244.57 574.823 1244.59 575.099 1244.65C577.469 1245.12 579.018 1247.42 578.549 1249.8L564.584 1320.69C564.171 1322.8 562.347 1324.23 560.299 1324.23Z" fill="#CED4E8"/>
<path d="M1788.49 1093.1C1786.87 1093.1 1785.27 1092.46 1784.04 1091.24L1759.65 1066.85L1768.57 1057.94L1792.95 1082.33C1795.41 1084.79 1795.41 1088.78 1792.95 1091.24C1791.71 1092.46 1790.1 1093.1 1788.49 1093.1ZM1750.74 1057.94L1726.35 1033.56C1723.9 1031.09 1723.9 1027.11 1726.35 1024.65C1727.59 1023.42 1729.2 1022.8 1730.81 1022.8C1732.42 1022.8 1734.04 1023.42 1735.28 1024.65L1759.65 1049.03L1750.74 1057.94Z" fill="#CED4E8"/>
<path d="M1730.82 1093.1C1729.21 1093.1 1727.59 1092.46 1726.35 1091.24C1723.9 1088.78 1723.9 1084.79 1726.35 1082.33L1750.74 1057.94L1759.65 1049.03L1784.04 1024.65C1785.27 1023.42 1786.87 1022.8 1788.49 1022.8C1790.1 1022.8 1791.71 1023.42 1792.95 1024.65C1795.41 1027.11 1795.41 1031.09 1792.95 1033.56L1768.57 1057.94L1759.65 1066.85L1735.28 1091.24C1734.04 1092.46 1732.43 1093.1 1730.82 1093.1Z" fill="#CED4E8"/>
<path d="M223.117 1158.62C222.188 1158.62 221.259 1158.27 220.558 1157.57L206.502 1143.52L211.639 1138.38L225.687 1152.42C227.099 1153.85 227.099 1156.16 225.687 1157.57C224.981 1158.27 224.049 1158.62 223.117 1158.62ZM201.366 1138.38L187.317 1124.33C185.896 1122.92 185.896 1120.62 187.317 1119.19C188.029 1118.48 188.958 1118.13 189.886 1118.13C190.814 1118.13 191.74 1118.48 192.446 1119.19L206.502 1133.24L201.366 1138.38Z" fill="#CED4E8"/>
<path d="M189.879 1158.62C188.955 1158.62 188.022 1158.27 187.317 1157.57C185.896 1156.16 185.896 1153.85 187.317 1152.42L201.366 1138.38L206.502 1133.24L220.558 1119.19C221.266 1118.48 222.193 1118.13 223.121 1118.13C224.05 1118.13 224.978 1118.48 225.687 1119.19C227.099 1120.62 227.099 1122.92 225.687 1124.33L211.639 1138.38L206.502 1143.52L192.446 1157.57C191.748 1158.27 190.812 1158.62 189.879 1158.62Z" fill="#CED4E8"/>
<path d="M1882.8 312.585C1881.87 312.585 1880.94 312.224 1880.24 311.522L1866.19 297.471L1871.32 292.339L1885.37 306.385C1886.78 307.814 1886.78 310.111 1885.37 311.522C1884.66 312.224 1883.73 312.585 1882.8 312.585ZM1861.05 292.339L1847 278.292C1845.58 276.868 1845.58 274.557 1847 273.142C1847.71 272.436 1848.64 272.084 1849.57 272.084C1850.5 272.084 1851.43 272.436 1852.13 273.142L1866.19 287.202L1861.05 292.339Z" fill="#CED4E8"/>
<path d="M1849.57 312.585C1848.63 312.585 1847.71 312.224 1847 311.522C1845.58 310.111 1845.58 307.814 1847 306.385L1861.05 292.339L1866.19 287.202L1880.24 273.142C1880.94 272.436 1881.87 272.084 1882.8 272.084C1883.73 272.084 1884.66 272.436 1885.37 273.142C1886.78 274.557 1886.78 276.868 1885.37 278.292L1871.32 292.339L1866.19 297.471L1852.13 311.522C1851.42 312.224 1850.5 312.585 1849.57 312.585Z" fill="#CED4E8"/>
<path d="M1784.96 1380.82C1765.99 1380.82 1750.57 1365.41 1750.57 1346.45C1750.57 1327.49 1765.99 1312.06 1784.96 1312.06C1803.93 1312.06 1819.36 1327.49 1819.36 1346.45C1819.36 1365.41 1803.93 1380.82 1784.96 1380.82ZM1784.96 1321.2C1771.04 1321.2 1759.71 1332.53 1759.71 1346.45C1759.71 1360.38 1771.04 1371.69 1784.96 1371.69C1798.89 1371.69 1810.22 1360.38 1810.22 1346.45C1810.22 1332.53 1798.89 1321.2 1784.96 1321.2Z" fill="#CED4E8"/>
<path d="M172.569 904.686C153.595 904.686 138.167 889.275 138.167 870.324C138.167 851.342 153.595 835.919 172.569 835.919C191.517 835.919 206.953 851.342 206.953 870.324C206.953 889.275 191.517 904.686 172.569 904.686ZM172.569 845.07C158.634 845.07 147.31 856.38 147.31 870.324C147.31 884.229 158.634 895.561 172.569 895.561C186.487 895.561 197.816 884.229 197.816 870.324C197.816 856.38 186.487 845.07 172.569 845.07Z" fill="#CED4E8"/>
<path d="M1294.38 32.1904C1285.62 32.1904 1278.51 25.066 1278.51 16.3238C1278.51 7.56872 1285.62 0.444131 1294.38 0.444131C1303.12 0.444131 1310.25 7.56872 1310.25 16.3238C1310.25 25.066 1303.12 32.1904 1294.38 32.1904ZM1294.38 4.67327C1287.95 4.67327 1282.72 9.90484 1282.72 16.3238C1282.72 22.7384 1287.95 27.9699 1294.38 27.9699C1300.8 27.9699 1306.03 22.7384 1306.03 16.3238C1306.03 9.90484 1300.8 4.67327 1294.38 4.67327Z" fill="#CED4E8"/>
<path d="M1994 1427.54H0V1118.26H1994V1427.54Z" fill="#9DDEDA"/>
<path d="M390.815 1152.5C373.955 1152.5 360.237 1138.78 360.237 1121.92V247.716C360.237 230.855 373.955 217.14 390.815 217.14H1603.18C1620.04 217.14 1633.76 230.855 1633.76 247.716V1121.92C1633.76 1138.78 1620.04 1152.5 1603.18 1152.5H390.815Z" fill="#3F3E3E"/>
<path d="M1603.18 211.745H390.815C370.981 211.745 354.843 227.883 354.843 247.716V1121.92C354.843 1141.76 370.981 1157.89 390.815 1157.89H1603.18C1623.02 1157.89 1639.16 1141.76 1639.16 1121.92V247.716C1639.16 227.883 1623.02 211.745 1603.18 211.745ZM1603.18 222.539C1617.09 222.539 1628.37 233.811 1628.37 247.716V1121.92C1628.37 1135.82 1617.09 1147.11 1603.18 1147.11H390.815C376.91 1147.11 365.635 1135.82 365.635 1121.92V247.716C365.635 233.811 376.91 222.539 390.815 222.539H1603.18Z" fill="#112945"/>
<path d="M1628.37 330.465V247.716C1628.37 233.811 1617.09 222.539 1603.18 222.539H390.815C376.91 222.539 365.635 233.811 365.635 247.716V330.465H1628.37Z" fill="#112945"/>
<path d="M457.372 276.502C457.372 290.403 446.096 301.679 432.187 301.679C418.279 301.679 407.008 290.403 407.008 276.502C407.008 262.589 418.279 251.317 432.187 251.317C446.096 251.317 457.372 262.589 457.372 276.502Z" fill="#FBC829"/>
<path d="M522.13 276.502C522.13 290.403 510.854 301.679 496.949 301.679C483.035 301.679 471.759 290.403 471.759 276.502C471.759 262.589 483.035 251.317 496.949 251.317C510.854 251.317 522.13 262.589 522.13 276.502Z" fill="#50C4AF"/>
<path d="M586.882 276.502C586.882 290.403 575.61 301.679 561.701 301.679C547.788 301.679 536.52 290.403 536.52 276.502C536.52 262.589 547.788 251.317 561.701 251.317C575.61 251.317 586.882 262.589 586.882 276.502Z" fill="#F03F66"/>
<path d="M761.197 577.38C761.197 670.042 686.084 745.155 593.43 745.155C500.764 745.155 425.648 670.042 425.648 577.38C425.648 484.723 500.764 409.61 593.43 409.61C686.084 409.61 761.197 484.723 761.197 577.38Z" fill="#9DDEDA"/>
<path d="M713.441 1080.89H473.41V789.563H713.441V1080.89Z" fill="#FBC829"/>
<path d="M1521.15 419.884H999.434C989.44 419.884 981.347 427.981 981.347 437.97V577.742C981.347 587.727 989.44 595.82 999.434 595.82H1422.88L1447.12 637.801L1471.36 595.82H1521.15C1531.14 595.82 1539.24 587.727 1539.24 577.742V437.97C1539.24 427.981 1531.14 419.884 1521.15 419.884Z" fill="#FBC829"/>
<path d="M1521.15 815.032H999.434C989.44 815.032 981.347 823.124 981.347 833.106V972.881C981.347 982.871 989.44 990.964 999.434 990.964H1422.88L1447.12 1032.95L1471.36 990.964H1521.15C1531.14 990.964 1539.24 982.871 1539.24 972.881V833.106C1539.24 823.124 1531.14 815.032 1521.15 815.032Z" fill="#9DDEDA"/>
<path d="M1389.43 617.46H867.703C857.722 617.46 849.625 625.552 849.625 635.538V775.313C849.625 785.303 857.722 793.396 867.703 793.396H917.506L941.745 835.377L965.979 793.396H1389.43C1399.42 793.396 1407.51 785.303 1407.51 775.313V635.538C1407.51 625.552 1399.42 617.46 1389.43 617.46Z" fill="#2B64A5"/>
<path d="M662.026 532.929C662.026 570.122 631.867 600.263 594.687 600.263C557.481 600.263 527.344 570.122 527.344 532.929C527.344 495.74 557.481 465.59 594.687 465.59C631.867 465.59 662.026 495.74 662.026 532.929Z" fill="white"/>
<path d="M663.283 582.796C647.855 603.972 622.88 617.752 594.688 617.752C566.039 617.752 540.742 603.542 525.383 581.811C504.302 593.061 491.008 609.457 491.008 627.725C491.008 661.665 536.861 689.174 593.431 689.174C649.993 689.174 695.851 661.665 695.851 627.725C695.851 609.986 683.305 594.016 663.283 582.796Z" fill="white"/>
<path d="M1496.77 460.759C1496.77 463.431 1494.61 465.59 1491.94 465.59H1028.77C1026.1 465.59 1023.94 463.431 1023.94 460.759C1023.94 458.092 1026.1 455.928 1028.77 455.928H1491.94C1494.61 455.928 1496.77 458.092 1496.77 460.759Z" fill="white"/>
<path d="M1496.77 505.494C1496.77 508.161 1494.61 510.325 1491.94 510.325H1028.77C1026.1 510.325 1023.94 508.161 1023.94 505.494C1023.94 502.826 1026.1 500.662 1028.77 500.662H1491.94C1494.61 500.662 1496.77 502.826 1496.77 505.494Z" fill="white"/>
<path d="M1496.77 550.229C1496.77 552.896 1494.61 555.06 1491.94 555.06H1028.77C1026.1 555.06 1023.94 552.896 1023.94 550.229C1023.94 547.561 1026.1 545.397 1028.77 545.397H1491.94C1494.61 545.397 1496.77 547.561 1496.77 550.229Z" fill="white"/>
<path d="M1364.98 658.632C1364.98 661.3 1362.82 663.459 1360.15 663.459H896.98C894.312 663.459 892.148 661.3 892.148 658.632C892.148 655.961 894.312 653.801 896.98 653.801H1360.15C1362.82 653.801 1364.98 655.961 1364.98 658.632Z" fill="white"/>
<path d="M1364.98 703.367C1364.98 706.03 1362.82 708.194 1360.15 708.194H896.98C894.312 708.194 892.148 706.03 892.148 703.367C892.148 700.695 894.312 698.531 896.98 698.531H1360.15C1362.82 698.531 1364.98 700.695 1364.98 703.367Z" fill="white"/>
<path d="M1364.98 748.097C1364.98 750.769 1362.82 752.929 1360.15 752.929H896.98C894.312 752.929 892.148 750.769 892.148 748.097C892.148 745.43 894.312 743.266 896.98 743.266H1360.15C1362.82 743.266 1364.98 745.43 1364.98 748.097Z" fill="white"/>
<path d="M1496.71 855.929C1496.71 858.601 1494.55 860.76 1491.88 860.76H1028.71C1026.04 860.76 1023.87 858.601 1023.87 855.929C1023.87 853.266 1026.04 851.097 1028.71 851.097H1491.88C1494.55 851.097 1496.71 853.266 1496.71 855.929Z" fill="white"/>
<path d="M1496.71 900.664C1496.71 903.331 1494.55 905.495 1491.88 905.495H1028.71C1026.04 905.495 1023.87 903.331 1023.87 900.664C1023.87 897.992 1026.04 895.832 1028.71 895.832H1491.88C1494.55 895.832 1496.71 897.992 1496.71 900.664Z" fill="white"/>
<path d="M1496.71 945.403C1496.71 948.066 1494.55 950.226 1491.88 950.226H1028.71C1026.04 950.226 1023.87 948.066 1023.87 945.403C1023.87 942.731 1026.04 940.571 1028.71 940.571H1491.88C1494.55 940.571 1496.71 942.731 1496.71 945.403Z" fill="white"/>
<path d="M480.69 1124.08C484.742 1173.53 426.517 1165.73 371.144 1170.27C315.775 1174.81 263.664 1179.98 262.894 1133.29C261.465 1047.39 315.417 1101.42 370.788 1096.89C426.163 1092.35 474.593 1049.66 480.69 1124.08Z" fill="#112945"/>
<path d="M450.031 562.791C450.031 580.28 449.347 608.029 441.461 608.029C433.571 608.029 421.465 580.28 421.465 562.791C421.465 545.311 427.859 531.131 435.748 531.131C443.634 531.131 450.031 545.311 450.031 562.791Z" fill="#112945"/>
<path d="M478.767 1107.67C466.333 1120.1 325.833 1101.13 272.56 1115.83C240.388 1124.71 272.431 1016.01 260.121 953.246C246.298 882.771 256.812 802.414 272.56 761.547C295.11 703.023 404.152 697.413 431.322 743.37C452.428 779.07 459.63 861.858 460.289 937.401C460.878 1004.69 495.799 1090.64 478.767 1107.67Z" fill="#33BBCF"/>
<path d="M328.861 645.024C330.314 660.581 331.398 675.497 330.079 691.725C329.155 703.083 326.118 713.4 322.547 723.717C326.662 728.075 352.158 761.546 364.736 761.546C367.67 761.546 379.525 729.886 379.525 729.886L377.505 645.519L328.861 645.024Z" fill="#F2BAB3"/>
<path d="M328.862 645.024C330.315 660.581 331.399 675.497 330.08 691.725C330.016 692.508 329.884 693.261 329.798 694.036C331.354 696.398 333.161 698.622 335.659 700.394C347.173 708.538 365.389 710.1 379.018 708.521L377.506 645.519L328.862 645.024Z" fill="#EF8FA4"/>
<path d="M438.924 543.212C429.73 495.405 387.796 476.307 371.691 476.901C323.036 478.725 285.067 519.64 286.881 568.294L288.932 623.246C290.68 670.119 333.739 694.143 364.737 694.143C395.732 694.143 423.335 676.715 434.932 640.197C446.531 603.688 442.603 562.357 438.924 543.212Z" fill="#F2BAB3"/>
<path d="M417.701 671.776C417.999 670.029 409.734 677.751 407.929 674.116C399.783 657.733 393.432 632.307 364.834 631.64V631.575H363.582V631.64C334.982 632.307 328.629 657.733 320.489 674.116C318.68 677.751 310.417 670.029 310.72 671.776C313.726 689.268 348.109 696.957 363.582 697.271V697.301H363.818L364.209 697.288L364.592 697.301H364.834V697.271C380.309 696.957 414.692 689.268 417.701 671.776Z" fill="#112945"/>
<path d="M391.962 1032.76C392.034 1036.4 389.144 1039.42 385.502 1039.5L345.877 1040.37C342.237 1040.45 339.214 1037.57 339.132 1033.93L337.515 959.755C337.432 956.111 340.323 953.091 343.967 953.005L383.589 952.136C387.236 952.071 390.258 954.954 390.331 958.611L391.962 1032.76Z" fill="white"/>
<path d="M401.621 993.153C404.286 1003.19 391.766 1015.22 373.655 1020.03C355.55 1024.84 337.022 1029.77 336.034 1010.59C334.501 980.78 346.629 992.327 364.737 987.509C382.851 982.695 398.954 983.108 401.621 993.153Z" fill="#F2BAB3"/>
<path d="M181.686 977.966C278.231 1014.39 338.841 1019.74 338.841 1019.74L338.466 992.861C338.466 992.861 283.621 971.01 222.272 932.647C214.262 927.63 206.125 922.278 197.985 916.578C168.961 931.098 145.751 960.749 181.686 977.966Z" fill="#F2BAB3"/>
<path d="M301.83 816.908C332.756 765.427 306.892 730.962 276.991 738.215C244.553 746.08 182.507 880.034 163.953 955.104C188.738 971.784 181.444 965.06 212.664 958.679C212.99 957.604 213.632 955.453 213.632 955.453C213.632 955.453 273.529 864.022 301.83 816.908Z" fill="#F2BAB3"/>
<path d="M278.231 733.203C257.459 738.241 225.352 791.585 198.643 850.831C220.501 860.115 243.068 879.312 264.588 881.872C279.342 858.738 294.168 835.145 304.817 817.424C337.918 762.321 310.237 725.442 278.231 733.203Z" fill="#50C4AF"/>
<path d="M332.606 997.442C330.655 1007.64 343.998 1018.77 362.402 1022.27C380.806 1025.8 399.63 1029.4 399.262 1010.19C398.681 980.354 387.401 992.732 368.999 989.204C350.591 985.685 334.559 987.234 332.606 997.442Z" fill="#F2BAB3"/>
<path d="M550.916 966.755C457.196 1009.91 397.107 1019.53 397.107 1019.53L395.583 992.693C395.583 992.693 448.747 967.013 507.227 924.416C514.868 918.841 522.608 912.929 530.33 906.67C560.3 919.099 585.55 947.042 550.916 966.755Z" fill="#F2BAB3"/>
<path d="M421.377 814.06C387.301 764.605 410.969 728.6 441.265 733.973C474.134 739.807 544.407 869.627 567.601 943.394C543.899 961.588 550.761 954.425 519.205 949.998C518.809 948.948 518.039 946.836 518.039 946.836C518.039 946.836 452.563 859.319 421.377 814.06Z" fill="#F2BAB3"/>
<path d="M440.628 731.938C460.909 735.539 494.987 784.907 524.229 840.282C503.763 850.517 483.211 870.333 462.673 874.093C447.094 852.728 431.417 830.929 420.116 814.52C384.976 763.521 409.384 726.393 440.628 731.938Z" fill="#50C4AF"/>
<path d="M449.585 527.302C437.982 517.811 401.98 393.489 304.187 494.721C304.187 494.721 258.592 510.76 270.618 549.846C282.646 588.936 288.362 608.029 288.362 608.029C288.362 608.029 300.774 580.813 309.207 551.351C315.815 528.248 369.59 553.993 381.374 555.099C463.528 562.791 455.638 532.254 449.585 527.302Z" fill="#112945"/>
<path d="M535.801 1322.86C535.809 1321.64 535.754 1320.42 535.672 1319.2C535.672 1319.2 538.941 1295.05 534.601 1288.8C531.464 1284.27 514.277 1280.34 514.277 1280.34C511.394 1278.71 508.658 1278.03 506.408 1278.67C492.976 1282.48 489.935 1292.53 487.065 1316.38C485.538 1329.05 488.605 1344.5 493.669 1357.07C500.023 1372.85 509.364 1383.8 516.961 1379.41C522.219 1376.38 533.516 1349.08 535.637 1326.76C535.749 1325.63 535.754 1324.51 535.771 1323.38L535.818 1323.43L535.801 1322.86Z" fill="white"/>
<path d="M487.066 1316.38C487.066 1316.38 472.761 1303.46 445.765 1293.03L459.889 1264.1C486.214 1277.45 502.017 1280.32 502.017 1280.32C502.017 1280.32 520.809 1311.79 507.683 1333.83C494.561 1355.86 487.066 1316.38 487.066 1316.38Z" fill="white"/>
<path d="M166.374 1152.62C171.497 1156.79 177.972 1158.95 183.767 1162.12C323.537 1238.42 459.256 1311.54 483.267 1321.02C483.267 1321.02 514.247 1278.91 504.89 1272.37C422.637 1214.8 319.19 1145.14 221.557 1080.27C173.553 1048.83 127.306 1120.84 166.374 1152.62Z" fill="#112945"/>
<path d="M180.226 1275.58C180.367 1274.36 180.57 1273.16 180.799 1271.96C180.799 1271.96 180.481 1247.59 185.543 1241.91C189.207 1237.79 206.743 1235.98 206.743 1235.98C209.797 1234.71 212.598 1234.36 214.756 1235.27C227.619 1240.68 229.426 1251.02 229.392 1275.04C229.372 1287.8 224.453 1302.78 217.911 1314.64C209.693 1329.53 199.09 1339.27 192.08 1333.99C187.229 1330.34 179.322 1301.87 179.913 1279.46C179.943 1278.34 180.069 1277.22 180.19 1276.1L180.14 1276.14L180.226 1275.58Z" fill="white"/>
<path d="M229.392 1275.04C229.392 1275.04 245.152 1263.95 273.214 1256.86L262.697 1226.44C234.951 1236.5 218.917 1237.44 218.917 1237.44C218.917 1237.44 196.449 1266.4 206.81 1289.87C217.171 1313.33 229.392 1275.04 229.392 1275.04Z" fill="white"/>
<path d="M567.552 1151.32C561.963 1154.84 555.269 1156.2 549.138 1158.64C401.156 1217.46 257.585 1273.61 232.598 1280.11C232.598 1280.11 206.945 1234.56 217.021 1229.2C305.648 1182.01 416.763 1125.4 521.535 1072.82C572.99 1047.43 610.179 1124.51 567.552 1151.32Z" fill="#112945"/>
<path d="M346.638 650.174C346.331 650.204 346.352 650.922 346.305 651.331C345.564 657.668 353.184 663.76 363.316 664.939C373.448 666.122 382.258 661.94 382.997 655.603C383.042 655.195 382.962 654.803 382.943 654.399C382.943 654.399 375.814 647.158 346.638 650.174Z" fill="#F2BAB3"/>
<path d="M1568.72 674.383C1552.55 746.076 1569.91 824.781 1565.64 899.296C1564.5 919.103 1550.94 967.934 1564.41 976.934C1579.01 986.675 1607.01 975.256 1622.36 975.256C1643.76 975.256 1665.03 975.007 1686.29 976.943C1701.81 978.35 1727.96 994.698 1738.89 983.155C1772.22 947.937 1746.52 887.848 1734.11 841.259C1727.31 815.708 1726.24 787.042 1726.24 760.617C1726.24 738.895 1728.95 710.845 1725.24 690.125C1725.24 690.125 1744.82 581.476 1644.99 581.476C1547.62 581.476 1576.71 638.95 1568.72 674.383Z" fill="#112945"/>
<path d="M1744.82 1185.05C1744.82 1232.05 1690.44 1220.18 1637.81 1220.18C1585.18 1220.18 1535.58 1221.03 1538.46 1176.88C1543.77 1095.68 1590.51 1150.86 1643.15 1150.86C1695.78 1150.86 1744.82 1114.31 1744.82 1185.05Z" fill="#112945"/>
<path d="M1742.72 1156.79C1742.72 1156.79 1702.72 1171.96 1636.86 1172.35C1570.99 1172.74 1544.97 1143.97 1544.97 1143.97C1544.97 1143.97 1572.23 1017.92 1568.53 864.563C1566.94 798.989 1712.22 800.623 1725.73 844.179C1734.39 872.092 1744.3 897.6 1744.78 928.202C1745.53 975.144 1734.18 989.445 1729.16 1034.62C1723.22 1088.12 1742.72 1156.79 1742.72 1156.79Z" fill="#33BBCF"/>
<path d="M1630.56 750.485C1631.94 765.229 1632.97 779.358 1631.71 794.73C1630.84 805.485 1627.96 815.264 1624.58 825.03C1628.48 829.165 1640.94 841.289 1652.85 841.258C1667.21 841.224 1672.31 833.82 1672.31 833.82L1676.64 750.959L1630.56 750.485Z" fill="#F2B99A"/>
<path d="M1630.56 750.485C1631.94 765.229 1632.96 779.357 1631.71 794.729C1631.65 795.469 1631.53 796.183 1631.45 796.915C1632.92 799.161 1634.63 801.264 1637 802.942C1647.9 810.656 1660.64 811.534 1673.54 810.032L1676.64 750.958L1630.56 750.485Z" fill="#EF8FA4"/>
<path d="M1563.17 929.373C1570.86 919.443 1578.01 910.013 1583.93 901.903C1601.02 878.486 1612.12 826.824 1583.11 828.829C1568.19 829.862 1542.58 856.248 1516.65 890.838C1530.6 906.343 1542.47 918.213 1563.17 929.373Z" fill="#50C4AF"/>
<path d="M1516.65 890.837C1518.14 888.871 1459.53 975.897 1443.38 1012.94C1463.83 1032.41 1458.1 1024.99 1488.19 1024C1488.67 1023.05 1489.61 1021.14 1489.61 1021.14C1489.61 1021.14 1531.07 970.851 1563.17 929.373C1542.47 918.213 1530.6 906.343 1516.65 890.837Z" fill="#F2B99A"/>
<path d="M1662.42 1076.16C1663.88 1085.86 1650.87 1095.86 1633.36 1098.52C1615.86 1101.16 1597.94 1103.87 1599 1085.74C1600.65 1057.59 1610.85 1069.69 1628.35 1067.04C1645.87 1064.39 1660.95 1066.45 1662.42 1076.16Z" fill="#F2B99A"/>
<path d="M1457.4 1039.14C1544.31 1083.34 1608.08 1094.63 1608.08 1094.63L1605.61 1070.17C1605.61 1070.17 1540.16 1036.79 1479.06 983.155C1450.3 993.794 1425.42 1019.25 1457.4 1039.14Z" fill="#F2B99A"/>
<path d="M1734.11 929.373C1726.43 919.443 1719.27 910.013 1713.36 901.903C1696.26 878.486 1685.16 826.824 1714.17 828.829C1729.09 829.862 1754.7 856.248 1780.62 890.838C1766.68 906.343 1754.81 918.213 1734.11 929.373Z" fill="#50C4AF"/>
<path d="M1780.62 890.837C1779.15 888.871 1837.76 975.897 1853.91 1012.94C1833.46 1032.41 1839.19 1024.99 1809.09 1024C1808.61 1023.05 1807.67 1021.14 1807.67 1021.14C1807.67 1021.14 1766.21 970.851 1734.11 929.373C1754.81 918.213 1766.68 906.343 1780.62 890.837Z" fill="#F2B99A"/>
<path d="M1634.86 1076.16C1633.4 1085.86 1646.41 1095.86 1663.92 1098.52C1681.43 1101.16 1699.34 1103.87 1698.27 1085.74C1696.63 1057.59 1686.43 1069.69 1668.92 1067.04C1651.42 1064.39 1636.33 1066.45 1634.86 1076.16Z" fill="#F2B99A"/>
<path d="M1839.88 1039.14C1752.97 1083.34 1689.21 1094.63 1689.21 1094.63L1691.67 1070.17C1691.67 1070.17 1757.12 1036.79 1818.23 983.155C1846.98 993.794 1871.86 1019.25 1839.88 1039.14Z" fill="#F2B99A"/>
<path d="M1712.62 672.468C1704.8 631.821 1682.55 616.079 1655.46 616.087C1614.06 616.109 1581.8 652.424 1583.35 693.79L1584.23 717.706C1584.23 717.706 1585.59 788.603 1649.54 788.603C1713.49 788.603 1715.43 726.182 1715.74 712.651C1716.12 696.1 1714.34 681.425 1712.62 672.468Z" fill="#F2B99A"/>
<path d="M1615.86 587.525C1559.45 607.638 1583.67 702.343 1583.67 702.343C1583.67 702.343 1640.45 607.07 1714.67 686.662C1714.67 686.662 1720.04 550.379 1615.86 587.525Z" fill="#50C4AF"/>
<path d="M1612.61 614.371C1550.23 631.334 1577.01 711.227 1577.01 711.227C1577.01 711.227 1639.8 630.861 1721.87 698.002C1721.87 698.002 1727.81 583.037 1612.61 614.371Z" fill="#112945"/>
<path d="M1495.8 1361.92L1491.31 1355.82L1512.15 1329.67L1521.66 1341.53L1495.8 1361.92Z" fill="#F89C2C"/>
<path d="M1523.66 1338.03C1521.19 1348.86 1488.89 1355.47 1466.93 1340.57C1448.2 1327.87 1429.51 1304.64 1429.38 1298.51C1429.17 1289.65 1443.4 1286.7 1460.45 1288.73C1474.02 1290.34 1489.19 1295.12 1499.67 1302.61C1519.38 1316.72 1526.8 1324.28 1523.66 1338.03Z" fill="#F89C2C"/>
<path d="M1499.67 1302.61C1499.67 1302.61 1518.03 1296.22 1540.37 1277.38L1559.12 1303.91C1534.54 1320.74 1524.33 1333.33 1524.33 1333.33C1524.33 1333.33 1487.37 1334.71 1474.23 1312.4C1461.08 1290.09 1499.67 1302.61 1499.67 1302.61Z" fill="#F2B99A"/>
<path d="M1823.08 1083.1C1810.43 1087.23 1800.66 1097.78 1789.3 1105.23C1644.73 1199.97 1539.78 1265.46 1516.91 1284.48C1516.91 1284.48 1539.07 1328.06 1548.81 1321.9C1650.31 1257.74 1714.91 1217.86 1827.53 1164.86C1844.51 1156.86 1854.22 1157.6 1870.78 1145.41C1891.1 1130.46 1865.13 1069.4 1823.08 1083.1Z" fill="#112945"/>
<path d="M1792.56 1361.92L1797.04 1355.82L1776.2 1329.67L1766.69 1341.53L1792.56 1361.92Z" fill="#F89C2C"/>
<path d="M1764.69 1338.03C1767.17 1348.86 1799.46 1355.47 1821.43 1340.57C1840.15 1327.87 1858.84 1304.64 1858.98 1298.51C1859.18 1289.65 1844.95 1286.7 1827.91 1288.73C1814.34 1290.34 1799.16 1295.12 1788.69 1302.61C1768.97 1316.72 1761.55 1324.28 1764.69 1338.03Z" fill="#F89C2C"/>
<path d="M1788.69 1302.61C1788.69 1302.61 1770.32 1296.22 1747.98 1277.38L1729.24 1303.91C1753.81 1320.74 1764.03 1333.33 1764.03 1333.33C1764.03 1333.33 1800.99 1334.71 1814.13 1312.4C1827.28 1290.09 1788.69 1302.61 1788.69 1302.61Z" fill="#F2B99A"/>
<path d="M1465.27 1083.1C1477.92 1087.23 1487.69 1097.78 1499.05 1105.23C1643.62 1199.97 1748.57 1265.46 1771.44 1284.48C1771.44 1284.48 1749.28 1328.06 1739.54 1321.9C1638.04 1257.74 1573.44 1217.86 1460.82 1164.86C1443.84 1156.86 1434.13 1157.6 1417.57 1145.41C1397.26 1130.46 1423.23 1069.4 1465.27 1083.1Z" fill="#112945"/>
<path d="M1760.65 1162.94C1760.65 1172.05 1752.14 1179.43 1741.66 1179.43H1551.56C1541.08 1179.43 1532.57 1172.05 1532.57 1162.94V1055.38C1532.57 1046.28 1541.08 1038.9 1551.56 1038.9H1741.66C1752.14 1038.9 1760.65 1046.28 1760.65 1055.38V1162.94Z" fill="white"/>
</svg>
